<svg version="1.0" xmlns="http://www.w3.org/2000/svg"
 width="229.000000pt" height="160.000000pt" viewBox="0 0 229.000000 160.000000"
 preserveAspectRatio="xMidYMid meet">

<g transform="translate(0.000000,160.000000) scale(0.100000,-0.100000)"
fill="#ffffff" stroke="none">
<path d="M1135 1368 c-77 -4 -158 -13 -180 -19 -22 -5 -67 -10 -100 -9 -83 1
-306 -27 -318 -39 -21 -21 8 -30 118 -41 156 -14 169 -13 203 15 17 14 33 25
36 25 3 0 6 -22 6 -49 0 -33 6 -56 20 -74 15 -18 20 -40 20 -81 0 -41 4 -57
16 -64 14 -8 3 -18 -57 -53 -41 -23 -96 -64 -124 -90 l-50 -46 -178 5 c-154 4
-177 3 -177 -11 0 -22 15 -25 162 -38 125 -10 175 -25 155 -46 -4 -3 -80 -1
-170 6 -118 9 -170 10 -190 2 -36 -14 -37 -14 -37 3 0 7 13 19 29 26 16 6 32
18 35 25 7 18 -11 89 -24 93 -5 2 0 12 12 21 20 17 21 21 9 82 -7 35 -19 74
-27 87 -20 30 -56 26 -65 -8 -11 -39 -10 -129 1 -151 9 -16 6 -24 -14 -42 -38
-34 -84 -131 -92 -193 -8 -65 2 -82 37 -63 22 11 23 11 11 -4 -11 -12 -36 -17
-105 -20 l-92 -3 95 -2 c52 -1 101 2 107 6 7 4 24 35 37 68 l24 59 149 0 c81
0 178 -4 214 -8 65 -8 67 -9 84 -47 22 -48 59 -84 107 -104 59 -25 94 -21 119
14 32 42 52 46 28 5 -18 -29 -19 -44 -13 -107 l7 -72 -29 19 c-27 19 -45 20
-244 18 -118 -1 -225 -5 -237 -8 -23 -5 -32 -38 -13 -50 20 -12 190 -45 297
-56 l111 -13 41 27 c22 15 43 27 46 27 3 0 3 -26 -1 -59 -4 -36 -2 -66 5 -79
14 -26 64 -37 101 -22 33 14 47 57 36 111 -5 25 -3 30 8 26 59 -23 458 -46
484 -28 27 17 9 45 -33 53 -57 10 -476 39 -485 33 -8 -5 -16 37 -26 140 l-6
71 113 60 c100 52 117 65 138 103 l24 44 66 -6 c67 -6 389 -83 404 -97 5 -4 2
-21 -7 -38 -30 -57 -13 -122 27 -106 21 8 79 120 75 147 -2 18 -12 23 -48 29
-25 3 -62 13 -83 22 -46 20 -310 85 -357 88 -19 1 -45 -1 -57 -6 -35 -12 -27
10 10 27 17 8 56 22 84 30 52 16 54 15 195 -24 105 -28 162 -39 214 -39 57 0
77 -4 97 -20 30 -24 161 -209 154 -217 -11 -10 -26 8 -72 85 -71 117 -114 156
-129 116 -17 -43 -5 -67 70 -144 80 -83 126 -112 147 -91 6 6 50 12 107 12
102 2 98 4 -21 14 l-76 6 -72 104 c-68 100 -111 145 -135 145 -7 0 -16 15 -21
33 -7 22 -17 33 -32 35 -18 3 -23 10 -23 32 0 33 -107 175 -140 185 -48 15
-51 -14 -9 -98 41 -82 73 -123 101 -131 13 -3 28 -17 35 -32 l12 -26 -47 6
c-26 4 -106 24 -179 44 l-131 38 24 23 c25 24 31 46 14 56 -5 3 -10 16 -10 29
0 28 -22 49 -80 75 -67 31 -145 28 -225 -8 l-64 -29 -21 33 c-11 19 -36 47
-55 64 -27 23 -35 38 -35 64 l0 34 148 6 c179 8 217 16 217 42 0 24 -27 26
-230 13z m214 -18 c-21 -12 -230 -32 -299 -28 l-55 3 -3 -37 c-3 -37 -4 -38
-43 -38 -38 0 -39 1 -39 34 0 19 6 38 13 43 16 10 236 30 352 31 60 1 85 -2
74 -8z m-469 -27 c0 -4 -10 -17 -22 -30 -19 -20 -31 -23 -98 -23 -97 0 -200
11 -200 20 0 4 46 13 103 20 56 6 111 13 122 14 42 6 95 6 95 -1z m75 -103
c-3 -5 -10 -10 -16 -10 -5 0 -9 5 -9 10 0 6 7 10 16 10 8 0 12 -4 9 -10z m89
-41 c25 -28 46 -55 46 -60 0 -4 -10 -14 -22 -20 -19 -10 -24 -9 -37 12 -9 13
-29 38 -45 56 -23 27 -26 36 -16 48 18 22 24 20 74 -36z m-37 -59 l32 -49 -27
-19 -27 -20 4 44 c2 29 -3 53 -13 69 -9 14 -13 25 -9 25 5 0 23 -23 40 -50z
m383 19 c48 -21 80 -46 80 -61 0 -5 -9 -6 -20 -3 -37 12 -161 -35 -335 -125
-298 -154 -288 -147 -300 -208 l-10 -52 -32 19 c-44 27 -52 45 -39 93 13 50
76 110 176 168 41 24 91 55 110 70 75 58 218 119 280 119 25 0 65 -9 90 -20z
m354 -70 c61 -78 73 -119 33 -119 -31 0 -49 21 -97 114 -64 123 -30 126 64 5z
m-773 51 c2 -28 2 -47 0 -67 -4 -29 -19 15 -20 55 -1 34 18 46 20 12z m-663
-23 c13 -16 43 -137 37 -148 -3 -4 -18 -12 -34 -17 -27 -10 -30 -8 -41 19 -11
26 -7 130 7 152 7 11 19 9 31 -6z m1142 -45 c0 -11 -100 -70 -156 -91 -35 -14
-50 -25 -54 -42 -6 -26 -65 -59 -273 -150 -64 -29 -122 -58 -128 -65 -6 -7 -9
-23 -7 -36 6 -41 59 -28 218 51 80 40 160 82 178 93 41 25 47 21 23 -19 -14
-22 -50 -46 -129 -87 -61 -31 -120 -56 -132 -56 -12 0 -35 -15 -53 -35 -35
-40 -55 -42 -112 -16 -49 22 -79 54 -100 105 l-17 39 31 -26 c63 -53 91 -45
91 25 0 35 4 39 63 74 112 66 348 187 421 215 68 27 136 38 136 21z m28 -28
c-5 -27 -49 -54 -113 -70 -33 -9 -71 -22 -83 -31 -13 -8 -26 -12 -29 -9 -8 8
7 26 23 26 16 0 114 48 159 79 36 25 48 26 43 5z m372 -103 c13 -26 13 -31 -3
-31 -22 0 -51 26 -43 38 11 18 34 14 46 -7z m-545 -11 c-16 -11 -34 -20 -40
-20 -5 0 4 9 20 20 17 11 35 20 40 20 6 0 -3 -9 -20 -20z m-1032 -22 c-5 -7
-20 -53 -32 -103 -25 -98 -43 -135 -66 -135 -19 0 -19 12 0 81 14 55 44 117
73 152 17 20 40 24 25 5z m61 -10 c11 -44 6 -65 -19 -76 -26 -12 -26 -12 -19
26 4 20 7 45 6 55 -1 25 25 21 32 -5z m-59 -74 c-20 -68 -30 -66 -15 2 17 69
21 82 27 67 2 -7 -3 -38 -12 -69z m979 60 c4 -9 5 -18 4 -19 -52 -34 -303
-160 -360 -181 -25 -9 -45 -11 -51 -5 -20 20 16 49 120 94 59 26 144 65 188
86 94 46 91 45 99 25z m291 -33 c88 -22 177 -47 197 -55 21 -9 48 -16 60 -16
52 -1 56 -15 19 -85 -23 -46 -39 -65 -50 -63 -24 5 -25 42 -1 88 12 23 19 44
16 47 -10 10 -239 70 -336 88 -116 21 -151 33 -100 34 19 1 107 -17 195 -38z
m-922 3 c68 -6 77 -9 77 -27 0 -14 -4 -17 -17 -12 -10 3 -74 11 -143 17 -69 6
-132 14 -140 19 -18 10 115 12 223 3z m1294 -26 c12 -13 37 -51 57 -85 20 -34
51 -76 68 -94 31 -31 31 -31 6 -18 -15 8 -59 45 -98 83 -59 58 -70 74 -70 102
0 40 9 42 37 12z m-901 -294 c8 -54 21 -108 29 -120 16 -25 20 -120 6 -142 -5
-9 -24 -12 -52 -10 l-44 3 -3 72 c-2 47 2 82 11 100 9 19 13 49 9 94 -4 61 10
120 25 105 3 -3 12 -49 19 -102z m-103 -76 c15 -6 27 -14 27 -18 0 -4 -17 -19
-38 -34 -32 -22 -49 -26 -104 -26 -72 0 -286 33 -330 51 -24 10 -35 24 -25 31
5 4 366 13 402 10 22 -2 52 -8 68 -14z m576 -55 c50 -5 76 -13 79 -22 4 -12
-27 -13 -199 -8 -112 3 -224 11 -249 17 -41 10 -64 26 -55 40 3 5 278 -12 424
-27z"/>
</g>
</svg>
