<svg version="1.0" xmlns="http://www.w3.org/2000/svg"
 width="1088.000000pt" height="803.000000pt" viewBox="0 0 1088.000000 803.000000"
 preserveAspectRatio="xMidYMid meet">

<g transform="translate(0.000000,803.000000) scale(0.100000,-0.100000)"
fill="#ffffff" stroke="none">
<path d="M6693 7963 c26 -2 67 -2 90 0 23 2 2 3 -48 3 -49 0 -68 -1 -42 -3z"/>
<path d="M7122 7959 c481 -25 929 -134 1323 -323 428 -206 759 -473 1043 -841
5 -5 32 -46 61 -90 58 -86 81 -115 61 -75 -72 139 -292 405 -463 558 -380 339
-857 579 -1384 696 -251 56 -506 87 -687 84 -97 -1 -95 -1 46 -9z"/>
<path d="M6553 7953 c15 -2 37 -2 50 0 12 2 0 4 -28 4 -27 0 -38 -2 -22 -4z"/>
<path d="M6448 7943 c6 -2 18 -2 25 0 6 3 1 5 -13 5 -14 0 -19 -2 -12 -5z"/>
<path d="M6378 7933 c6 -2 18 -2 25 0 6 3 1 5 -13 5 -14 0 -19 -2 -12 -5z"/>
<path d="M6538 7573 c7 -3 16 -2 19 1 4 3 -2 6 -13 5 -11 0 -14 -3 -6 -6z"/>
<path d="M6190 7455 c-36 -14 -98 -41 -138 -61 -68 -34 -76 -35 -116 -25 -181
45 -574 30 -756 -29 -132 -44 -392 -168 -491 -237 -65 -44 -149 -117 -149
-130 0 -4 -28 -26 -63 -47 -204 -130 -354 -257 -648 -549 -267 -266 -503 -576
-693 -909 -15 -27 -29 -48 -32 -48 -15 0 33 316 69 455 30 114 105 302 159
397 143 254 332 443 613 615 170 103 418 200 650 252 28 6 75 18 105 26 l55
14 -50 -5 c-27 -3 -106 -19 -175 -36 -69 -16 -138 -31 -154 -33 -46 -7 -178
-52 -258 -88 -161 -74 -355 -198 -341 -220 3 -6 1 -7 -5 -3 -29 18 -246 -188
-361 -342 -218 -291 -321 -582 -327 -931 -2 -90 -8 -168 -13 -175 -18 -22
-132 -290 -128 -300 3 -7 -20 -11 -67 -11 -67 -1 -75 -3 -134 -43 -142 -97
-221 -260 -254 -526 -10 -76 -14 -94 -19 -71 -13 62 -8 -266 6 -371 58 -440
208 -756 485 -1019 170 -163 406 -284 552 -285 36 0 36 -1 42 -47 3 -27 8
-123 12 -215 5 -147 4 -173 -11 -204 -9 -20 -26 -80 -37 -133 -30 -142 -30
-475 1 -651 37 -216 127 -509 200 -658 17 -34 31 -65 31 -69 0 -10 103 -186
158 -270 68 -105 183 -251 241 -308 59 -57 69 -49 13 10 -139 149 -259 315
-358 496 -49 90 -124 253 -124 269 0 3 29 -46 64 -108 36 -62 72 -119 80 -127
8 -9 23 -29 33 -45 9 -17 21 -30 26 -30 5 0 5 6 -1 13 -9 11 -40 64 -107 182
-38 67 -112 244 -149 357 -72 217 -113 505 -101 705 7 128 30 301 40 311 4 4
4 -71 0 -165 -9 -196 5 -235 24 -71 18 159 24 427 13 593 -8 113 -8 152 1 157
9 6 9 10 -1 16 -7 5 -18 58 -27 133 -8 68 -24 176 -35 239 -11 63 -29 171 -41
240 -11 69 -35 202 -53 295 -19 94 -35 199 -35 235 -2 86 -16 167 -48 267 -31
101 -23 146 10 63 72 -177 226 -312 472 -416 167 -70 265 -97 342 -96 98 2
172 49 179 113 5 45 10 46 24 4 34 -103 -46 -252 -167 -313 -95 -48 -224 -53
-351 -13 -34 10 -62 16 -62 12 0 -5 28 -16 63 -27 45 -14 92 -19 172 -19 105
0 113 2 178 34 105 53 172 141 184 241 10 83 -64 277 -94 247 -3 -4 6 -25 21
-48 37 -55 30 -94 -24 -143 -91 -82 -225 -58 -508 89 -253 132 -326 195 -404
350 -29 56 -31 69 -35 190 -6 207 -3 266 14 299 44 87 105 138 228 187 162 64
333 31 547 -107 65 -41 99 -50 55 -13 l-22 18 42 1 c33 0 46 6 65 29 l25 29
55 -127 c67 -151 117 -296 156 -450 16 -62 32 -109 35 -105 8 13 -56 255 -98
369 -19 55 -60 151 -90 213 -48 99 -54 119 -49 156 7 51 -17 155 -50 211 -26
43 -93 115 -109 115 -5 0 9 -19 32 -42 61 -63 102 -152 108 -235 l4 -68 -21
25 -22 25 18 -32 c15 -26 16 -37 6 -58 -25 -55 -88 -57 -184 -6 -29 16 -105
52 -168 81 -105 48 -121 53 -185 53 -167 -1 -369 -130 -425 -272 l-13 -33 -18
33 c-24 45 -24 47 9 42 19 -3 23 -2 13 5 -11 8 0 32 54 123 96 162 117 190
229 321 315 366 687 675 1101 912 98 56 319 165 324 160 2 -2 -30 -39 -71 -81
-176 -182 -255 -287 -325 -431 -42 -88 -93 -286 -93 -364 0 -66 37 -214 70
-278 120 -236 400 -372 760 -371 140 0 205 -10 445 -75 122 -32 352 -76 570
-109 99 -15 229 -36 288 -46 174 -32 289 -39 702 -45 354 -4 531 -14 556 -29
21 -14 -119 -184 -225 -274 -36 -31 -38 -35 -32 -74 9 -56 78 -201 121 -253
19 -23 35 -44 35 -47 0 -3 -17 -7 -37 -10 -45 -5 -98 14 -135 50 -17 16 -28
21 -28 14 0 -41 109 -101 183 -101 21 0 25 -6 30 -41 6 -45 -8 -151 -24 -181
-5 -10 -17 -18 -25 -18 -8 0 -12 -5 -9 -10 3 -6 1 -10 -5 -10 -19 0 -22 28 -5
57 12 19 12 22 2 10 -14 -17 -17 -17 -69 12 -29 16 -93 40 -142 52 -66 16 -85
24 -70 30 34 13 68 9 103 -12 18 -11 36 -18 38 -15 3 3 -10 14 -28 25 -39 24
-83 27 -120 7 -22 -11 -44 -11 -142 2 l-116 16 -4 40 -4 41 -1 -42 c-2 -42 -3
-43 -36 -43 -19 0 -41 -3 -49 -6 -16 -6 -47 20 -47 39 1 12 147 80 255 118 33
11 97 23 143 26 45 3 82 10 82 14 0 5 9 9 19 9 11 0 23 5 26 10 9 15 -131 12
-217 -4 -91 -18 -188 -54 -282 -106 -128 -71 -236 -97 -287 -70 -15 9 -21 7
-25 -5 -8 -21 -6 -22 57 -47 47 -18 79 -20 249 -22 133 -1 202 -6 218 -14 12
-7 47 -49 78 -93 54 -77 94 -110 131 -108 11 0 6 5 -12 11 -39 14 -61 33 -98
88 -16 25 -42 58 -56 73 l-26 29 25 -6 c182 -38 172 -34 238 -94 42 -37 68
-71 77 -97 8 -22 14 -32 15 -22 0 31 -27 73 -82 122 -41 37 -47 47 -28 41 14
-4 35 -10 48 -13 12 -3 31 -18 42 -33 15 -21 26 -26 44 -23 20 4 36 -6 79 -49
45 -45 57 -64 67 -109 9 -40 9 -61 1 -83 -11 -27 -14 -28 -54 -21 -109 19
-130 22 -184 19 -169 -9 -273 -68 -247 -141 10 -31 76 -56 129 -50 28 3 28 3
-10 10 -22 5 -50 10 -62 13 -35 7 -55 32 -43 55 30 54 190 90 316 71 107 -17
115 -23 73 -58 -71 -60 -148 -143 -167 -180 -23 -45 -46 -149 -38 -170 11 -28
-10 -13 -57 41 -27 30 -53 55 -59 55 -6 0 -34 11 -62 25 -45 22 -76 27 -238
39 -212 16 -263 32 -333 102 -21 22 -33 30 -27 18 13 -25 63 -69 101 -88 43
-22 127 -36 281 -46 184 -11 228 -26 298 -99 68 -71 144 -184 173 -258 30 -78
31 -198 1 -264 -43 -99 -150 -167 -292 -188 -41 -5 -160 -13 -265 -15 -218 -6
-355 -27 -510 -79 -137 -46 -172 -66 -265 -148 -44 -39 -80 -67 -80 -62 -1 4
-7 -5 -15 -22 -7 -16 -23 -41 -34 -55 -28 -34 -28 -10 0 73 45 134 146 217
352 288 37 13 67 27 67 31 0 10 -190 -57 -237 -84 -96 -55 -167 -132 -192
-210 -7 -21 -19 -38 -27 -38 -10 0 -14 -13 -14 -44 0 -24 -9 -73 -20 -109 -40
-130 -147 -251 -340 -386 l-114 -79 -28 19 c-15 11 -72 41 -125 66 l-98 45 53
20 c30 11 51 22 49 24 -2 3 -30 -5 -61 -17 l-57 -22 -127 41 c-70 22 -215 64
-322 93 -430 115 -640 211 -822 379 -73 66 -89 72 -35 14 47 -53 175 -146 269
-198 145 -78 270 -122 633 -222 149 -41 281 -79 295 -84 14 -5 38 -14 54 -20
29 -11 29 -11 -50 -50 -43 -21 -103 -60 -132 -86 -52 -45 -112 -134 -112 -164
1 -8 13 9 28 39 35 71 130 156 225 204 42 20 82 37 90 37 23 0 135 -47 203
-85 l65 -36 -62 -66 c-85 -91 -109 -146 -109 -248 0 -44 6 -98 12 -120 12 -40
12 -40 19 47 5 70 12 100 38 153 28 57 132 185 150 185 11 -1 57 -73 70 -109
10 -31 9 -38 -16 -73 -59 -87 -184 -226 -376 -421 -59 -60 -106 -111 -104
-113 7 -7 344 344 421 439 44 53 84 97 89 97 14 0 0 -102 -23 -168 -22 -62
-90 -170 -149 -236 -59 -66 -68 -86 -12 -26 70 74 144 186 171 257 14 36 23
85 24 130 2 67 5 75 43 125 22 29 48 65 58 81 32 50 8 28 -46 -43 -29 -38 -54
-70 -56 -70 -1 0 -12 22 -24 49 -11 27 -29 57 -40 67 -10 9 -19 21 -19 25 0 7
75 72 161 138 24 19 82 73 129 120 93 94 146 182 156 263 4 29 15 55 29 68
l22 20 -15 -67 c-11 -54 -13 -125 -8 -348 8 -397 -11 -543 -94 -722 -55 -118
-103 -185 -209 -295 -52 -54 -89 -98 -83 -98 20 0 177 163 221 228 53 79 115
208 141 292 l20 65 -4 -115 c-9 -226 -59 -375 -183 -537 -14 -18 -21 -33 -15
-33 12 0 57 55 94 115 38 61 76 165 101 273 21 93 22 116 21 575 0 262 4 477
8 477 4 0 8 -3 8 -7 0 -12 120 -197 192 -296 94 -130 257 -336 382 -482 61
-71 125 -151 143 -177 46 -67 99 -174 119 -243 20 -68 23 -222 5 -267 -6 -16
-7 -28 -2 -28 15 0 31 86 31 164 0 174 -74 315 -315 596 -179 208 -327 404
-483 637 -90 134 -92 141 -71 259 8 45 18 68 36 86 24 21 25 21 18 3 -4 -11
-10 -31 -12 -45 -4 -19 2 -14 24 20 62 94 156 159 279 191 85 22 199 26 529
19 193 -4 285 10 390 60 65 31 136 94 161 142 23 45 46 135 51 201 5 85 -11
160 -58 257 -36 75 -41 93 -41 157 1 125 41 188 197 305 44 34 86 68 93 76 17
22 15 119 -4 175 -9 26 -29 61 -45 78 -29 32 -30 32 -11 53 36 40 56 139 43
211 -8 40 -7 52 5 58 12 7 11 13 -8 40 -12 18 -25 34 -28 37 -15 14 -60 73
-60 79 0 4 126 11 280 15 269 6 282 6 320 -14 22 -11 40 -16 40 -11 0 5 -9 13
-20 16 -39 12 -19 25 38 25 100 1 416 29 449 40 20 7 37 24 48 46 16 33 15 37
-5 79 -26 54 -122 143 -239 223 -227 156 -488 244 -851 288 -111 14 -249 17
-770 19 -750 2 -851 10 -1152 96 -83 24 -105 34 -101 46 6 16 -21 15 -157 -6
-36 -5 -101 -12 -145 -15 l-80 -6 90 20 c119 27 158 39 171 56 6 8 25 20 43
27 30 13 39 11 139 -29 171 -68 269 -85 532 -91 161 -4 279 -1 415 11 289 25
522 37 579 32 28 -3 89 -8 136 -11 410 -31 867 -184 1200 -402 181 -119 424
-308 415 -323 -9 -15 -129 -77 -200 -103 -220 -80 -420 -105 -875 -108 l-225
-1 165 -15 c288 -25 541 -14 755 33 89 19 267 77 369 121 74 32 79 32 93 16
13 -17 14 -16 9 8 -5 23 -1 29 24 39 17 7 30 17 30 22 0 6 17 30 38 54 22 24
50 66 63 94 13 27 27 50 31 50 12 0 124 -138 175 -215 51 -77 72 -103 53 -65
-30 58 -124 193 -171 244 l-51 56 25 44 c36 64 56 133 58 194 2 59 20 66 30
11 8 -42 10 -24 12 106 1 50 4 92 8 95 5 5 0 103 -21 375 -20 250 -66 522
-130 760 -23 85 -83 265 -87 261 -3 -2 9 -48 26 -103 73 -239 136 -543 166
-798 17 -150 32 -455 21 -455 -4 0 -51 26 -104 58 -53 32 -140 82 -192 112
-52 29 -124 77 -160 106 -182 146 -344 230 -625 324 -276 93 -360 135 -451
225 -117 116 -133 178 -132 490 1 222 -13 348 -64 584 -34 160 -33 215 4 266
17 24 18 27 3 15 -54 -44 -57 -118 -11 -345 40 -195 56 -378 54 -615 -1 -142
2 -174 19 -227 44 -133 138 -232 288 -305 43 -21 163 -65 265 -98 200 -64 372
-144 517 -240 45 -30 81 -55 80 -56 -1 -1 -85 39 -187 90 -330 164 -633 275
-906 334 -230 50 -301 57 -554 57 -310 -1 -413 -20 -730 -135 -159 -57 -271
-94 -320 -105 -19 -4 -30 -10 -24 -12 16 -5 174 42 319 97 253 94 375 123 612
142 306 26 695 -35 1063 -165 187 -66 333 -129 555 -241 176 -89 619 -335 668
-371 15 -11 17 -25 15 -89 l-3 -76 -122 78 c-169 107 -170 108 -64 56 105 -51
151 -53 91 -4 -52 43 -266 168 -430 252 -728 370 -1187 499 -1731 485 -243 -6
-341 -22 -599 -102 -259 -80 -336 -96 -459 -97 -88 0 -117 4 -172 24 -100 37
-157 74 -236 154 -58 59 -81 92 -122 176 -64 132 -80 196 -88 338 -8 170 36
374 104 475 303 450 726 712 1266 784 112 16 385 13 513 -3 367 -49 698 -173
1046 -393 65 -41 141 -93 170 -117 29 -23 96 -75 149 -114 53 -39 134 -111
179 -159 45 -48 77 -79 72 -68 -6 11 -37 50 -71 87 -34 36 -61 73 -61 81 0 20
-103 115 -217 199 -314 233 -664 402 -1003 483 -492 117 -966 71 -1399 -136
-174 -83 -308 -175 -421 -288 -217 -218 -324 -440 -350 -729 l-9 -97 5 115
c10 266 114 524 302 744 19 23 10 16 -19 -14 -67 -69 -118 -145 -174 -258 -54
-111 -79 -184 -105 -313 -29 -139 -24 -371 9 -494 57 -212 180 -375 346 -458
78 -39 129 -49 252 -48 138 1 273 26 468 86 133 42 203 58 375 86 110 19 430
16 575 -5 417 -59 820 -201 1285 -451 139 -75 433 -248 550 -323 30 -20 56
-36 58 -37 4 -3 -68 -206 -84 -237 -17 -32 -26 -35 -45 -12 -7 9 -40 37 -73
62 -258 200 -568 332 -946 401 -267 49 -473 61 -1089 61 -272 0 -492 2 -489 5
2 2 128 23 279 44 151 22 317 47 369 55 125 21 141 21 133 -1 -4 -13 -1 -12
10 3 56 74 31 216 -47 274 -101 75 -404 80 -719 14 -151 -32 -165 -38 -177
-84 -32 -118 -20 -192 40 -252 21 -21 47 -38 58 -38 12 0 23 -3 25 -7 11 -18
-345 11 -478 39 -264 54 -432 158 -537 330 -21 34 -38 57 -38 52 0 -20 72
-130 113 -172 117 -122 314 -209 547 -242 157 -22 331 -28 805 -29 727 -2
1007 -21 1313 -90 292 -66 560 -183 758 -331 91 -68 154 -126 154 -142 0 -20
-86 -124 -142 -171 l-47 -40 -71 66 c-267 247 -616 453 -960 565 -350 115
-659 138 -1259 93 -441 -34 -670 -27 -874 24 -184 47 -332 128 -449 247 -70
69 -79 89 -54 117 34 38 78 145 83 199 5 51 -1 76 -48 212 l-53 155 0 150 c1
104 7 181 21 253 11 56 17 104 15 107 -2 2 -26 -7 -53 -21 -27 -13 -49 -20
-49 -15 0 20 55 152 102 246 165 329 410 585 699 731 l72 36 46 -18 c67 -26
135 -19 264 28 178 63 229 70 472 62 l210 -7 70 28 c65 26 74 28 132 18 34 -6
130 -38 214 -72 83 -34 158 -61 165 -61 27 0 14 26 -22 45 -20 11 -32 21 -27
22 9 3 292 -66 338 -83 13 -5 17 -4 10 3 -11 11 -138 47 -295 83 -52 13 -133
38 -180 56 -433 168 -961 157 -1366 -30 -76 -36 -78 -36 -123 -22 -25 8 -78
22 -117 30 -126 28 -126 28 -48 65 38 18 98 44 133 57 36 14 67 27 70 29 11
12 -29 2 -89 -20z m1135 -54 c29 -6 15 -8 -55 -5 -52 3 -114 7 -136 9 -38 4
-238 -7 -359 -19 l-50 -5 45 9 c98 22 192 29 350 24 91 -2 183 -8 205 -13z
m55 -30 l35 -8 -55 -16 c-46 -14 -95 -17 -290 -14 -258 2 -300 -4 -461 -73
-96 -40 -144 -46 -197 -22 l-43 19 58 22 c124 48 277 80 493 105 56 7 422 -3
460 -13z m-1551 -11 c11 -6 -18 -9 -81 -10 -288 -1 -659 -104 -1012 -281 -43
-22 -81 -38 -83 -35 -8 7 179 118 282 167 55 26 166 70 247 98 133 45 175 54
348 75 55 7 282 -4 299 -14z m884 13 c-7 -2 -19 -2 -25 0 -7 3 -2 5 12 5 14 0
19 -2 13 -5z m-550 -84 c45 -11 84 -22 85 -24 2 -2 -6 -9 -18 -15 -15 -8 -25
-8 -34 -1 -8 6 -40 22 -72 36 -73 30 -65 31 39 4z m-288 2 c-6 -4 -41 -35 -80
-67 -71 -59 -104 -91 -140 -135 -11 -13 14 8 55 47 41 39 101 89 132 113 l56
42 62 -11 c34 -6 94 -22 133 -36 40 -13 74 -24 76 -24 3 0 -29 -23 -70 -51
-41 -28 -94 -67 -118 -87 -56 -46 -206 -194 -252 -248 -32 -39 -39 -42 -134
-62 -55 -11 -109 -23 -120 -27 -11 -3 3 6 30 19 78 38 25 30 -92 -14 -59 -22
-112 -40 -119 -40 -7 0 -68 -16 -136 -36 -158 -47 -170 -49 -135 -29 16 9 26
19 23 22 -2 3 -42 -15 -88 -40 -46 -25 -147 -72 -225 -106 -172 -73 -311 -149
-463 -252 -100 -68 -285 -209 -300 -228 -3 -3 -45 -42 -93 -85 -271 -243 -547
-633 -702 -991 -21 -49 -45 -97 -52 -106 -18 -22 -52 -120 -55 -161 -3 -28 1
-33 21 -36 13 -2 28 1 34 7 20 20 26 12 49 -61 48 -157 21 -332 -71 -470 -27
-40 -47 -75 -45 -77 10 -10 55 46 87 108 83 159 90 363 17 513 -11 22 -17 45
-14 49 3 5 0 9 -6 9 -6 0 -8 5 -5 10 3 6 31 10 60 10 54 0 55 -1 71 -38 48
-112 66 -240 53 -364 -12 -102 -27 -149 -89 -264 -27 -51 -46 -94 -44 -97 3
-3 -1 -18 -9 -34 -9 -16 -23 -65 -32 -108 -50 -238 76 -509 287 -620 63 -33
56 -17 83 -204 9 -57 14 -105 12 -107 -4 -4 -105 47 -157 81 -42 27 -125 95
-116 95 2 0 30 -16 61 -35 81 -49 143 -71 157 -57 8 8 4 14 -15 21 -48 18
-199 122 -254 174 -92 87 -152 180 -194 302 -21 62 -24 87 -24 225 0 146 2
162 32 263 18 59 42 129 53 155 31 70 0 30 -49 -62 -66 -127 -76 -169 -76
-346 0 -214 25 -291 154 -483 107 -157 247 -280 385 -337 l53 -23 6 -70 c4
-39 4 -73 1 -76 -9 -9 -179 52 -266 95 -188 94 -278 166 -356 282 -150 222
-213 426 -214 692 -2 209 12 279 112 565 23 66 48 152 56 190 21 100 30 283
15 326 -14 43 -48 82 -63 73 -7 -4 -8 -2 -4 4 4 7 2 12 -3 12 -6 0 -11 4 -11
9 0 13 133 19 146 6 34 -31 63 -173 64 -305 0 -135 -24 -263 -93 -500 -113
-383 -127 -550 -67 -750 21 -69 74 -170 89 -170 5 0 -5 24 -23 54 -18 30 -43
87 -57 128 -21 63 -24 92 -24 218 0 160 10 213 91 500 81 286 97 371 97 515 1
142 -16 233 -57 315 l-24 48 72 148 c217 447 443 772 776 1117 114 119 335
320 388 354 15 10 38 28 52 41 45 41 363 249 460 300 217 116 565 228 825 267
102 15 364 20 350 6z m-198 -527 c-3 -3 -12 -4 -19 -1 -8 3 -5 6 6 6 11 1 17
-2 13 -5z m-142 -63 c-6 -5 -44 -36 -85 -68 -41 -33 -121 -100 -177 -150 -100
-87 -105 -90 -245 -143 -254 -96 -522 -240 -746 -400 -91 -65 -142 -106 -332
-267 -45 -37 -45 -37 14 32 101 119 355 366 481 466 210 168 443 318 650 418
96 47 165 67 365 105 41 7 77 14 80 15 2 0 0 -3 -5 -8z m67 -48 c-78 -111
-178 -350 -218 -522 -45 -194 -59 -510 -29 -674 16 -91 56 -202 98 -270 16
-27 26 -54 23 -63 -4 -11 -2 -15 8 -11 8 3 20 -1 28 -10 11 -13 7 -21 -27 -50
-104 -90 -273 -137 -409 -113 -116 20 -202 67 -287 157 -40 43 -62 62 -49 43
66 -99 201 -188 319 -210 149 -28 305 9 421 101 l51 40 57 -52 c31 -29 81 -68
111 -88 l53 -35 -42 -18 c-173 -74 -482 -101 -653 -57 -124 31 -229 90 -312
174 -77 78 -148 189 -139 217 3 9 1 26 -5 36 -20 37 -29 135 -19 197 30 189
166 437 365 666 147 169 195 209 298 248 50 19 84 36 77 39 -8 2 -34 -4 -58
-13 -25 -9 -47 -15 -49 -13 -6 6 52 53 239 197 87 67 161 119 164 117 2 -3 -5
-17 -16 -33z m-627 -109 c-131 -72 -308 -185 -425 -272 -228 -169 -520 -451
-680 -657 -47 -60 -103 -129 -126 -154 -126 -141 -248 -307 -343 -468 -24 -40
-45 -73 -48 -73 -3 0 23 52 57 116 249 471 586 872 1023 1218 133 106 278 207
344 241 47 25 286 113 308 114 6 1 -44 -29 -110 -65z m-554 -243 c-234 -175
-496 -440 -697 -706 -63 -83 -204 -290 -204 -299 0 -3 -17 -34 -38 -68 -21
-35 -71 -126 -111 -203 -76 -146 -94 -177 -67 -111 9 22 15 41 12 43 -6 6 -45
-83 -55 -127 -5 -23 -11 -43 -13 -44 -1 -2 -26 -6 -55 -8 l-52 -5 21 56 c11
31 57 133 103 226 246 501 628 927 1095 1224 109 69 138 79 61 22z m658 15
c-2 -2 -80 -42 -174 -89 -441 -221 -810 -490 -1144 -835 -121 -125 -115 -112
27 50 86 99 196 205 337 327 27 23 156 121 232 176 67 49 237 150 338 202 157
81 406 191 384 169z m446 -178 c-40 -231 -29 -383 42 -553 32 -78 37 -101 38
-170 0 -75 -3 -85 -40 -154 -22 -41 -45 -77 -52 -79 -15 -4 -96 164 -113 233
-37 157 -29 487 17 670 l28 110 45 22 c25 12 47 20 48 18 2 -2 -4 -45 -13 -97z
m92 -350 c-3 -8 -6 -5 -6 6 -1 11 2 17 5 13 3 -3 4 -12 1 -19z m10 -50 c-3 -8
-6 -5 -6 6 -1 11 2 17 5 13 3 -3 4 -12 1 -19z m36 -86 c57 -141 193 -297 311
-356 64 -32 74 -44 19 -21 -103 43 -215 141 -277 244 -39 63 -104 223 -82 200
2 -2 15 -32 29 -67z m1782 -383 c101 -29 161 -108 153 -205 -3 -30 -7 -56 -9
-58 -2 -2 -69 -13 -149 -25 -80 -11 -244 -36 -365 -56 -315 -50 -364 -47 -412
24 -19 28 -23 47 -22 110 0 42 5 91 12 110 11 32 17 36 82 53 101 26 224 48
318 58 103 11 339 4 392 -11z m-4645 -337 c39 -39 54 -120 47 -247 -6 -100
-29 -205 -88 -398 -43 -143 -66 -241 -74 -317 -7 -68 9 -297 26 -384 27 -133
84 -287 136 -369 44 -70 16 -50 -41 30 -69 95 -165 286 -205 408 -35 109 -76
288 -96 422 -38 254 4 563 103 746 42 77 69 106 115 123 46 17 46 17 77 -14z
m3056 -182 c84 -31 240 -68 380 -90 200 -30 428 -39 915 -33 294 4 491 2 584
-6 474 -39 820 -164 1083 -390 143 -124 159 -200 51 -231 -19 -6 -141 -17
-271 -26 l-237 -16 -78 30 c-90 35 -215 63 -270 61 -33 -2 -34 -2 -8 -6 57 -7
160 -32 230 -56 l70 -24 -45 -6 c-25 -3 -145 -9 -266 -13 l-222 -6 -15 48
c-40 125 -41 120 10 168 46 42 47 43 76 28 43 -22 248 -21 299 1 56 23 63 84
16 135 -32 33 -14 27 43 -15 72 -54 80 -115 19 -142 -96 -42 -214 -51 -330
-27 -36 8 -67 12 -69 10 -2 -2 13 -11 35 -21 50 -22 200 -29 274 -13 78 17
174 64 190 94 35 66 -73 164 -257 234 -152 59 -214 65 -658 67 -309 1 -433 5
-545 18 -288 35 -620 87 -895 141 -154 30 -306 57 -337 61 -32 4 -58 11 -58
14 0 7 129 26 200 29 19 1 58 -7 86 -18z m-2730 -56 c-4 -9 -9 -15 -11 -12 -3
3 -3 13 1 22 4 9 9 15 11 12 3 -3 3 -13 -1 -22z m4878 -280 c52 -20 -19 -154
-102 -190 -15 -7 -20 -13 -12 -13 48 -3 129 85 137 149 3 22 8 40 10 40 17 0
64 -35 91 -68 56 -71 60 -110 14 -132 -52 -25 -271 -25 -311 -1 -10 7 2 28 53
91 37 45 71 93 76 106 10 25 18 28 44 18z m-4640 -406 c13 -60 20 -105 15
-102 -12 7 -14 19 26 -161 34 -149 42 -215 16 -123 -32 114 -76 238 -84 238
-4 0 -6 -8 -3 -17 45 -151 136 -522 136 -556 0 -15 -11 -10 -61 25 -200 140
-275 372 -199 612 12 38 23 78 25 88 2 10 15 32 29 48 13 16 33 48 42 71 l19
40 8 -28 c4 -15 18 -76 31 -135z m5925 76 c-13 -14 -33 -30 -44 -36 -11 -5 -2
6 20 26 47 42 58 46 24 10z m-2039 -284 c-8 -5 -19 -10 -25 -10 -5 0 -3 5 5
10 8 5 20 10 25 10 6 0 3 -5 -5 -10z m-166 -126 c9 -24 9 -24 -31 -24 -21 0
-55 -5 -76 -11 -64 -17 -52 -4 20 24 83 31 79 31 87 11z m624 -189 c-3 -3 -9
2 -12 12 -6 14 -5 15 5 6 7 -7 10 -15 7 -18z m-132 -1324 c-57 -59 -176 -107
-311 -126 -46 -6 -540 4 -532 11 15 15 222 37 422 44 259 9 333 22 406 74 45
32 48 32 15 -3z m-1933 -1043 c-51 -55 -84 -105 -110 -165 -18 -44 -23 -50
-19 -25 9 54 36 101 94 163 30 33 57 59 60 59 3 0 -8 -15 -25 -32z"/>
<path d="M5070 6930 c-8 -5 -10 -10 -5 -10 6 0 17 5 25 10 8 5 11 10 5 10 -5
0 -17 -5 -25 -10z"/>
<path d="M4940 6877 c-231 -104 -528 -276 -625 -362 -16 -15 6 -2 50 28 144
98 337 209 480 277 77 36 156 73 175 82 75 36 10 15 -80 -25z"/>
<path d="M4148 6388 c-62 -51 -163 -142 -224 -203 -60 -60 -74 -76 -30 -35 44
41 83 77 86 80 21 22 187 163 233 199 53 41 63 51 53 51 -3 0 -56 -42 -118
-92z"/>
<path d="M3751 6008 c-14 -23 -14 -23 8 -4 22 20 25 26 13 26 -4 0 -13 -10
-21 -22z"/>
<path d="M5469 6473 c-13 -16 -12 -17 4 -4 9 7 17 15 17 17 0 8 -8 3 -21 -13z"/>
<path d="M5304 6318 c-165 -169 -250 -283 -324 -433 -117 -238 -140 -449 -65
-614 50 -109 134 -171 235 -171 69 0 124 25 171 77 37 41 65 103 56 126 -3 7
-6 4 -6 -6 -1 -10 -10 -35 -21 -57 -73 -144 -250 -172 -360 -58 -18 18 -47 62
-64 98 -30 63 -31 69 -31 205 1 170 16 236 97 399 76 153 163 268 352 464 55
56 97 102 94 102 -3 0 -63 -60 -134 -132z"/>
<path d="M5225 5883 c-15 -60 -22 -202 -14 -288 8 -92 43 -225 58 -225 5 0 2
21 -6 48 -40 130 -53 303 -33 426 10 63 7 86 -5 39z"/>
<path d="M2665 4741 c-83 -51 -116 -151 -80 -238 8 -20 18 -34 21 -30 3 3 1
14 -5 25 -14 27 -14 127 0 155 31 60 105 106 147 93 40 -13 54 -97 28 -161 -8
-19 -27 -51 -42 -70 -30 -39 -26 -47 7 -12 59 61 80 196 37 237 -27 25 -74 26
-113 1z"/>
<path d="M7384 7016 c90 -25 141 -122 215 -411 74 -291 103 -626 67 -778 -40
-169 -180 -219 -295 -105 -75 72 -82 110 -91 458 -8 283 -18 418 -39 545 -15
85 -12 17 5 -120 8 -71 19 -269 23 -440 6 -288 9 -313 29 -358 49 -108 112
-158 206 -160 95 -2 156 64 181 198 8 42 15 113 15 158 0 308 -124 844 -222
968 -23 29 -82 59 -113 58 -25 0 -21 -3 19 -13z"/>
<path d="M6611 6944 c0 -11 3 -14 6 -6 3 7 2 16 -1 19 -3 4 -6 -2 -5 -13z"/>
<path d="M6626 6800 c5 -119 40 -445 54 -505 l9 -40 -3 50 c-4 55 -40 395 -55
520 l-10 80 5 -105z"/>
<path d="M6351 6849 c-82 -33 -246 -186 -358 -334 -75 -100 -105 -148 -154
-245 -193 -388 -52 -789 311 -885 104 -28 256 -15 335 28 39 21 33 21 -43 -3
-87 -27 -227 -27 -314 0 -36 11 -91 37 -124 58 -267 174 -311 537 -106 877
118 195 326 422 438 477 49 24 86 19 109 -15 27 -42 66 -285 81 -505 4 -56 11
-105 16 -108 24 -15 -38 514 -70 597 -12 31 -58 69 -81 68 -9 0 -27 -5 -40
-10z"/>
<path d="M7041 6834 c0 -11 3 -14 6 -6 3 7 2 16 -1 19 -3 4 -6 -2 -5 -13z"/>
<path d="M7221 6814 c0 -11 3 -14 6 -6 3 7 2 16 -1 19 -3 4 -6 -2 -5 -13z"/>
<path d="M8330 6738 c14 -6 54 -27 90 -45 36 -19 56 -27 45 -18 -26 22 -103
61 -135 69 l-25 6 25 -12z"/>
<path d="M7071 6684 c0 -11 3 -14 6 -6 3 7 2 16 -1 19 -3 4 -6 -2 -5 -13z"/>
<path d="M7086 6600 c8 -43 14 -51 14 -19 0 13 -5 31 -10 39 -7 11 -8 5 -4
-20z"/>
<path d="M7102 6520 c0 -19 2 -27 5 -17 2 9 2 25 0 35 -3 9 -5 1 -5 -18z"/>
<path d="M7115 6430 c3 -30 10 -100 16 -155 6 -55 12 -209 13 -343 2 -133 6
-246 10 -249 3 -4 6 79 6 183 0 186 -21 486 -40 574 l-9 45 4 -55z"/>
<path d="M9760 6325 c1 -6 7 -21 16 -35 l15 -25 -7 25 c-7 26 -24 52 -24 35z"/>
<path d="M9791 6260 c0 -3 11 -34 25 -70 13 -36 22 -51 19 -35 -6 28 -43 116
-44 105z"/>
<path d="M6691 6225 c-2 -47 37 -281 45 -272 4 3 -16 146 -36 257 -6 35 -8 38
-9 15z"/>
<path d="M8565 6232 c4 -7 11 -73 15 -147 12 -181 40 -231 163 -293 118 -59
360 -172 367 -172 9 0 30 86 30 124 0 80 -63 198 -152 284 -50 49 -222 172
-240 172 -19 0 -3 -13 95 -79 163 -109 242 -210 267 -339 10 -54 1 -133 -15
-133 -22 0 -366 167 -410 198 -65 48 -81 90 -93 246 -6 79 -15 133 -22 140
-10 9 -11 9 -5 -1z"/>
<path d="M6537 6103 c7 -97 11 -100 12 -10 1 42 -3 77 -8 77 -5 0 -7 -30 -4
-67z"/>
<path d="M9841 6115 c1 -19 18 -51 18 -35 0 8 -4 22 -9 30 -5 8 -9 11 -9 5z"/>
<path d="M9866 6030 c4 -19 10 -44 15 -55 l8 -20 0 20 c0 11 -7 36 -15 55
l-14 35 6 -35z"/>
<path d="M7952 6005 c-1 -22 -4 -58 -7 -80 l-5 -40 11 40 c5 22 8 58 6 80 l-4
40 -1 -40z"/>
<path d="M9893 5925 c24 -113 48 -303 55 -435 7 -110 9 -132 10 -75 2 114 -15
303 -39 425 -11 58 -23 107 -26 110 -3 3 -3 -8 0 -25z"/>
<path d="M4336 5465 c-3 -9 -6 -24 -5 -33 0 -9 5 -4 10 12 9 32 6 48 -5 21z"/>
<path d="M4324 5295 c2 -82 9 -127 25 -175 26 -75 96 -192 140 -234 44 -43 38
-22 -10 32 -92 105 -137 221 -149 382 l-8 105 2 -110z"/>
<path d="M2345 5358 c-244 -126 -504 -323 -632 -477 -269 -326 -338 -692 -191
-1015 92 -202 241 -368 486 -545 71 -50 271 -171 514 -311 151 -87 327 -204
413 -274 l70 -58 -60 57 c-80 75 -264 197 -515 341 -358 205 -482 289 -624
424 -156 149 -266 315 -317 480 -21 65 -24 96 -24 230 0 132 3 167 23 234 70
242 240 475 480 659 111 84 139 103 311 204 118 69 154 97 66 51z"/>
<path d="M9943 5270 c0 -30 2 -43 4 -27 2 15 2 39 0 55 -2 15 -4 2 -4 -28z"/>
<path d="M10784 4750 c0 -63 1 -89 3 -57 2 31 2 83 0 115 -2 31 -3 5 -3 -58z"/>
<path d="M3685 4837 c-22 -8 -54 -21 -71 -30 -35 -18 -108 -97 -131 -140 -20
-40 -29 -220 -13 -288 31 -137 137 -286 253 -353 70 -41 79 -26 9 17 -116 71
-212 199 -243 323 -17 66 -6 198 21 261 27 64 99 133 163 158 89 34 188 5 264
-77 76 -83 89 -188 36 -299 -27 -59 -29 -69 -18 -95 19 -45 47 -63 121 -79 85
-17 119 -49 108 -99 -11 -51 -64 -96 -116 -96 -14 0 -19 -3 -12 -10 14 -14 75
5 104 32 13 13 33 28 45 33 27 14 32 77 10 111 -24 36 -99 81 -158 94 -83 17
-94 38 -57 111 38 73 26 259 -20 333 -51 80 -196 126 -295 93z"/>
<path d="M4820 4740 c64 -59 164 -124 256 -164 169 -74 276 -101 625 -160 383
-65 499 -91 629 -143 118 -47 225 -126 272 -201 30 -49 35 -30 4 22 -90 153
-311 243 -791 320 -295 48 -415 71 -543 107 -132 37 -343 139 -432 209 -54 43
-57 44 -20 10z"/>
<path d="M3689 4696 c-20 -7 -51 -23 -68 -35 -31 -22 -71 -87 -71 -113 1 -7
10 5 20 26 11 22 28 48 37 59 64 70 208 77 243 11 17 -30 33 -21 18 11 -12 26
-73 55 -116 55 -15 -1 -43 -7 -63 -14z"/>
<path d="M4229 4623 c-13 -16 -12 -17 4 -4 16 13 21 21 13 21 -2 0 -10 -8 -17
-17z"/>
<path d="M10767 4575 c-42 -375 -280 -677 -683 -866 -164 -77 -256 -107 -662
-220 -542 -150 -758 -252 -958 -453 -197 -199 -305 -466 -275 -682 10 -73 39
-180 46 -172 2 2 -6 37 -17 78 -39 148 -11 355 69 515 99 197 279 364 519 484
160 79 296 126 669 230 138 38 296 85 353 104 89 31 102 33 103 19 0 -13 2
-12 9 4 5 12 28 28 57 39 78 29 241 113 317 164 138 90 276 241 351 382 61
117 126 354 113 415 -2 10 -7 -8 -11 -41z"/>
<path d="M3858 4591 c-18 -20 -48 -34 -95 -46 -108 -27 -148 -44 -174 -72
l-24 -26 36 26 c20 15 69 35 115 46 43 10 90 23 104 29 29 12 70 48 70 62 0
14 -1 13 -32 -19z"/>
<path d="M4216 4560 c18 -72 95 -165 189 -227 22 -15 55 -41 74 -57 27 -25 31
-26 20 -8 -8 12 -49 47 -91 78 -87 62 -142 123 -176 192 -12 26 -19 36 -16 22z"/>
<path d="M3860 4482 c-64 -32 -104 -157 -65 -208 13 -17 14 -14 15 37 0 79 51
152 94 136 13 -5 16 -15 11 -44 l-7 -38 27 45 c45 76 7 113 -75 72z"/>
<path d="M6860 4427 c0 -41 23 -87 66 -130 61 -62 148 -98 299 -123 50 -8 115
-20 145 -27 54 -12 55 -13 92 -82 34 -63 126 -165 148 -165 5 0 -14 21 -42 48
-44 41 -108 132 -108 155 0 4 12 7 28 7 89 0 168 59 226 169 20 38 36 75 36
82 -1 8 -19 -20 -40 -62 -44 -87 -87 -134 -145 -160 -44 -20 -100 -25 -110 -9
-12 19 -77 40 -174 56 -202 32 -288 63 -346 124 -14 15 -37 54 -50 86 -20 47
-25 53 -25 31z"/>
<path d="M7233 4420 c-132 -7 -166 -23 -171 -81 -3 -33 25 -79 48 -79 5 0 -2
11 -15 25 -67 66 -2 125 138 125 l58 0 -31 -39 c-24 -29 -31 -47 -28 -72 2
-18 9 -34 16 -37 11 -3 12 0 3 16 -6 11 -11 26 -11 32 0 15 87 68 131 80 46
13 124 -3 158 -31 27 -22 45 -101 27 -119 -5 -5 -37 -10 -69 -10 -54 0 -62 3
-90 33 -18 18 -37 41 -44 52 -6 11 -12 15 -12 9 -2 -22 45 -80 79 -96 19 -10
57 -18 83 -18 40 0 54 5 78 29 41 41 40 86 -3 131 -61 62 -84 65 -345 50z"/>
<path d="M3682 4365 c0 -16 2 -22 5 -12 2 9 2 23 0 30 -3 6 -5 -1 -5 -18z"/>
<path d="M6820 4303 c23 -49 77 -96 129 -112 66 -19 69 -12 6 14 -56 23 -108
67 -143 121 -7 10 -3 0 8 -23z"/>
<path d="M3671 4292 c-1 -47 19 -100 48 -126 34 -31 74 -35 132 -15 74 26 93
24 136 -14 21 -19 49 -41 63 -50 27 -19 70 -23 70 -7 0 6 -6 10 -12 9 -28 -3
-39 3 -88 46 -63 56 -91 63 -150 41 -70 -28 -95 -30 -124 -10 -33 21 -56 63
-66 123 l-8 46 -1 -43z"/>
<path d="M4508 4210 c-3 -16 -1 -30 4 -30 4 0 8 14 8 30 0 17 -2 30 -4 30 -2
0 -6 -13 -8 -30z"/>
<path d="M7115 4157 l40 -13 -80 -12 c-103 -16 -206 -67 -266 -130 -30 -32
-33 -37 -9 -15 85 76 215 133 304 133 23 0 47 5 52 10 7 7 26 0 58 -20 26 -17
46 -25 44 -18 -8 23 -95 70 -139 74 l-44 4 40 -13z"/>
<path d="M4448 4107 c-62 -66 -56 -71 7 -7 27 27 47 51 44 53 -2 2 -25 -19
-51 -46z"/>
<path d="M4560 4129 c0 -14 5 -50 10 -80 6 -30 17 -185 25 -345 11 -224 18
-307 34 -367 56 -216 191 -337 453 -406 40 -11 159 -34 263 -51 591 -99 1039
-224 1604 -449 199 -79 280 -101 374 -101 159 0 269 85 269 209 0 42 -23 111
-38 111 -2 0 3 -14 12 -32 11 -22 15 -48 12 -89 -5 -72 -41 -121 -114 -159
-42 -22 -61 -25 -149 -25 -112 0 -127 5 -425 125 -465 186 -941 322 -1425 406
-299 51 -426 81 -516 120 -132 56 -215 133 -270 249 -45 95 -59 187 -69 455
-9 242 -25 411 -41 440 -6 11 -8 8 -9 -11z"/>
<path d="M4844 4128 c22 -34 119 -118 193 -167 106 -70 294 -143 363 -140 14
1 -2 7 -35 14 -179 39 -352 134 -484 266 -30 29 -47 42 -37 27z"/>
<path d="M3850 4069 c15 -51 56 -96 117 -125 46 -23 73 -29 147 -32 50 -2 102
1 116 6 18 7 2 8 -58 5 -151 -10 -268 42 -306 137 -19 47 -28 53 -16 9z"/>
<path d="M7315 4023 c-60 -13 -94 -31 -187 -100 -111 -81 -176 -118 -235 -133
l-38 -10 43 5 c55 7 98 29 192 99 41 31 108 73 147 93 67 33 77 35 140 31 66
-5 67 -5 28 8 -42 13 -58 14 -90 7z"/>
<path d="M531 3934 c0 -11 3 -14 6 -6 3 7 2 16 -1 19 -3 4 -6 -2 -5 -13z"/>
<path d="M4460 3808 c0 -260 40 -482 114 -644 48 -103 86 -156 191 -264 78
-80 100 -110 138 -190 44 -92 76 -205 78 -272 0 -18 5 -42 10 -53 14 -32 -1
100 -21 180 -20 76 -53 156 -95 223 l-26 42 58 -35 c32 -19 91 -47 131 -61 49
-18 69 -30 60 -35 -7 -5 -10 -9 -5 -9 4 0 40 -9 80 -19 39 -10 106 -24 147
-31 322 -52 525 -118 745 -244 79 -45 225 -148 300 -210 81 -68 86 -63 10 10
-127 122 -317 240 -505 315 -114 45 -131 54 -85 46 17 -4 82 -16 145 -27 270
-50 534 -118 684 -174 74 -28 97 -33 80 -16 -6 6 -80 35 -165 64 -174 60 -404
117 -719 176 -627 118 -822 183 -999 330 -110 91 -191 220 -245 385 -38 120
-59 261 -81 558 -4 48 -11 87 -16 87 -5 0 -9 -60 -9 -132z"/>
<path d="M516 3869 c-3 -17 -5 -43 -5 -58 1 -14 5 -2 10 28 10 58 6 83 -5 30z"/>
<path d="M6808 3783 c7 -3 16 -2 19 1 4 3 -2 6 -13 5 -11 0 -14 -3 -6 -6z"/>
<path d="M504 3665 c0 -60 1 -84 3 -52 2 32 2 81 0 110 -2 29 -3 3 -3 -58z"/>
<path d="M7579 3745 c40 -13 91 -27 112 -30 26 -5 47 -17 65 -38 20 -23 25
-26 23 -12 -5 24 -64 65 -94 65 -12 0 -51 9 -85 20 -34 11 -70 20 -79 20 -9
-1 17 -12 58 -25z"/>
<path d="M7349 3709 c-59 -55 -38 -46 31 14 24 20 39 37 34 37 -6 0 -35 -23
-65 -51z"/>
<path d="M7440 3723 c-23 -20 -46 -46 -51 -57 -6 -12 5 -4 23 17 19 21 47 47
63 57 17 11 24 20 18 20 -7 0 -31 -16 -53 -37z"/>
<path d="M7188 3582 c18 -16 44 -44 57 -62 14 -19 25 -30 25 -24 0 18 -29 52
-72 84 -41 30 -41 30 -10 2z"/>
<path d="M7795 3589 c-4 -6 -5 -12 -2 -15 2 -3 7 2 10 11 7 17 1 20 -8 4z"/>
<path d="M9911 3544 c-6 -21 -9 -40 -6 -42 2 -2 8 13 14 34 6 21 9 40 6 42 -2
2 -8 -13 -14 -34z"/>
<path d="M7045 3527 c10 -16 36 -41 59 -56 55 -37 78 -48 41 -19 -16 12 -50
41 -74 63 -37 33 -41 35 -26 12z"/>
<path d="M512 3480 c0 -14 2 -19 5 -12 2 6 2 18 0 25 -3 6 -5 1 -5 -13z"/>
<path d="M3690 3458 c-11 -18 -20 -37 -20 -42 0 -12 1 -10 28 37 26 45 19 50
-8 5z"/>
<path d="M9865 3425 c-30 -72 -114 -196 -173 -257 -20 -21 -31 -38 -25 -38 15
0 85 80 135 154 45 65 101 182 96 198 -2 6 -17 -20 -33 -57z"/>
<path d="M6988 3438 c22 -37 97 -99 155 -129 68 -36 277 -73 277 -49 0 6 -15
10 -34 10 -67 0 -192 30 -254 62 -57 29 -142 106 -142 129 0 5 -5 9 -11 9 -6
0 -2 -14 9 -32z"/>
<path d="M7710 3455 c0 -3 4 -13 10 -23 5 -9 16 -34 24 -54 16 -41 51 -58 83
-39 15 9 13 10 -12 5 -36 -7 -56 12 -74 68 -11 32 -31 61 -31 43z"/>
<path d="M4980 3421 c0 -6 4 -13 10 -16 6 -3 7 1 4 9 -7 18 -14 21 -14 7z"/>
<path d="M7194 3416 c11 -9 27 -16 35 -16 21 0 2 16 -29 24 -24 7 -24 6 -6 -8z"/>
<path d="M7261 3391 c9 -6 75 -19 147 -31 127 -19 209 -46 245 -77 9 -9 17
-12 17 -6 0 34 -125 79 -285 102 -44 6 -93 14 -110 17 -23 4 -26 3 -14 -5z"/>
<path d="M3662 3370 c0 -14 2 -19 5 -12 2 6 2 18 0 25 -3 6 -5 1 -5 -13z"/>
<path d="M5035 3351 c22 -23 54 -49 70 -57 17 -8 21 -9 11 -2 -11 7 -43 33
-70 58 l-51 44 40 -43z"/>
<path d="M7710 3323 c0 -16 36 -44 77 -59 58 -20 75 -16 19 6 -27 11 -59 29
-72 41 -13 13 -24 18 -24 12z"/>
<path d="M6801 3264 c-11 -31 -21 -63 -21 -72 0 -10 11 14 25 52 29 84 27 99
-4 20z"/>
<path d="M5285 3230 c19 -8 113 -14 104 -6 -2 2 -31 6 -64 9 -36 3 -52 2 -40
-3z"/>
<path d="M5518 3213 c34 -2 88 -2 120 0 31 2 3 3 -63 3 -66 0 -92 -1 -57 -3z"/>
<path d="M5701 3206 c2 -2 31 -6 64 -9 39 -4 50 -3 30 2 -31 9 -102 14 -94 7z"/>
<path d="M590 3181 c0 -6 4 -13 10 -16 6 -3 7 1 4 9 -7 18 -14 21 -14 7z"/>
<path d="M5838 3183 c6 -2 18 -2 25 0 6 3 1 5 -13 5 -14 0 -19 -2 -12 -5z"/>
<path d="M5888 3173 c7 -3 16 -2 19 1 4 3 -2 6 -13 5 -11 0 -14 -3 -6 -6z"/>
<path d="M5928 3163 c7 -3 16 -2 19 1 4 3 -2 6 -13 5 -11 0 -14 -3 -6 -6z"/>
<path d="M5975 3150 c11 -5 27 -9 35 -9 9 0 8 4 -5 9 -11 5 -27 9 -35 9 -9 0
-8 -4 5 -9z"/>
<path d="M616 3127 c3 -10 9 -15 12 -12 3 3 0 11 -7 18 -10 9 -11 8 -5 -6z"/>
<path d="M6031 3136 c4 -4 148 -62 179 -72 8 -3 -3 5 -24 17 -48 26 -171 70
-155 55z"/>
<path d="M6781 3130 c0 -8 4 -22 9 -30 12 -18 12 -2 0 25 -6 13 -9 15 -9 5z"/>
<path d="M7210 3103 c0 -13 69 -73 85 -73 5 0 -7 11 -27 25 -20 14 -42 33 -47
43 -6 9 -11 12 -11 5z"/>
<path d="M3623 3025 c0 -38 2 -53 4 -32 2 20 2 52 0 70 -2 17 -4 1 -4 -38z"/>
<path d="M660 3040 c11 -22 23 -40 25 -40 3 0 -4 18 -15 40 -11 22 -23 40 -25
40 -3 0 4 -18 15 -40z"/>
<path d="M4233 3011 c-75 -61 -193 -204 -181 -217 3 -2 22 21 43 51 21 31 76
91 122 135 46 44 82 80 79 80 -3 0 -31 -22 -63 -49z"/>
<path d="M6235 3050 c3 -5 11 -10 16 -10 6 0 7 5 4 10 -3 6 -11 10 -16 10 -6
0 -7 -4 -4 -10z"/>
<path d="M7630 3040 c-8 -5 -10 -10 -5 -10 6 0 17 5 25 10 8 5 11 10 5 10 -5
0 -17 -5 -25 -10z"/>
<path d="M6297 3019 c7 -7 15 -10 18 -7 3 3 -2 9 -12 12 -14 6 -15 5 -6 -5z"/>
<path d="M7320 3020 c8 -5 24 -9 35 -9 l20 0 -20 9 c-11 5 -27 9 -35 9 -13 1
-13 0 0 -9z"/>
<path d="M7589 3025 c-3 -2 -30 -9 -60 -14 l-54 -10 53 4 c45 3 107 24 76 25
-6 0 -13 -2 -15 -5z"/>
<path d="M7393 3003 c9 -2 25 -2 35 0 9 3 1 5 -18 5 -19 0 -27 -2 -17 -5z"/>
<path d="M698 2975 c59 -114 293 -348 397 -396 13 -6 12 -4 -5 8 -143 104
-246 202 -332 318 -67 89 -75 99 -60 70z"/>
<path d="M3631 2914 c0 -17 16 -109 36 -205 34 -164 36 -185 37 -364 1 -125
-5 -248 -18 -358 -20 -184 -18 -444 5 -525 18 -65 20 -46 4 43 -20 113 -18
271 6 523 28 297 23 447 -24 682 -20 96 -38 189 -40 205 l-4 30 -2 -31z"/>
<path d="M9186 2764 c-50 -30 -95 -59 -100 -65 -14 -15 -12 -14 104 56 103 62
108 65 94 64 -5 0 -49 -25 -98 -55z"/>
<path d="M5050 2710 c8 -5 20 -10 25 -10 6 0 3 5 -5 10 -8 5 -19 10 -25 10 -5
0 -3 -5 5 -10z"/>
<path d="M1127 2559 c7 -7 15 -10 18 -7 3 3 -2 9 -12 12 -14 6 -15 5 -6 -5z"/>
<path d="M1184 2526 c11 -9 24 -16 30 -16 12 0 7 5 -24 19 -24 11 -24 11 -6
-3z"/>
<path d="M8694 2474 c-18 -14 -18 -15 4 -4 12 6 22 13 22 15 0 8 -5 6 -26 -11z"/>
<path d="M3132 2440 c0 -14 2 -19 5 -12 2 6 2 18 0 25 -3 6 -5 1 -5 -13z"/>
<path d="M8633 2450 c-34 -14 -28 -21 7 -9 17 6 30 13 30 15 0 6 -12 4 -37 -6z"/>
<path d="M3470 2348 c-40 -40 -119 -127 -176 -193 l-103 -120 -153 -65 c-214
-90 -745 -357 -978 -490 -217 -124 -340 -199 -340 -207 0 -3 10 1 23 9 193
125 734 416 1032 555 167 78 413 184 385 166 -14 -9 -55 -47 -91 -83 -103
-105 -179 -269 -213 -460 -58 -326 -43 -832 38 -1254 16 -81 34 -123 22 -51
-63 395 -71 489 -71 855 0 280 3 350 18 425 22 110 67 256 77 250 4 -2 33 33
65 78 94 132 205 266 233 283 15 8 18 13 8 9 -18 -5 -19 -4 -5 12 17 20 199
228 267 304 64 72 44 59 -38 -23z m-335 -388 c-9 -15 -187 -264 -193 -270 -2
-3 -1 6 3 19 15 48 80 147 133 204 52 54 71 70 57 47z"/>
<path d="M3895 2335 c3 -38 11 -90 20 -115 11 -36 13 -38 8 -10 -4 19 -12 71
-19 115 l-13 80 4 -70z"/>
<path d="M3132 2365 c0 -16 2 -22 5 -12 2 9 2 23 0 30 -3 6 -5 -1 -5 -18z"/>
<path d="M4571 2344 c0 -11 3 -14 6 -6 3 7 2 16 -1 19 -3 4 -6 -2 -5 -13z"/>
<path d="M5618 2343 c6 -2 18 -2 25 0 6 3 1 5 -13 5 -14 0 -19 -2 -12 -5z"/>
<path d="M5696 2321 c86 -39 144 -111 190 -235 28 -75 32 -61 5 17 -21 61 -61
125 -107 171 -30 30 -94 66 -116 66 -7 0 5 -9 28 -19z"/>
<path d="M3121 2323 c-1 -6 -4 -20 -7 -30 -5 -17 -5 -17 6 0 6 10 9 23 6 30
-3 9 -5 9 -5 0z"/>
<path d="M4586 2301 c18 -66 106 -182 179 -234 16 -12 -2 10 -41 48 -43 43
-84 97 -107 140 -21 39 -35 59 -31 46z"/>
<path d="M3061 2211 c-47 -66 -142 -150 -238 -213 -68 -44 -87 -64 -25 -27
120 73 249 191 295 269 28 47 16 36 -32 -29z"/>
<path d="M5912 1995 c0 -16 2 -22 5 -12 2 9 2 23 0 30 -3 6 -5 -1 -5 -18z"/>
<path d="M5924 1870 c0 -52 1 -74 3 -47 2 26 2 68 0 95 -2 26 -3 4 -3 -48z"/>
<path d="M2724 1934 c-18 -14 -18 -15 4 -4 12 6 22 13 22 15 0 8 -5 6 -26 -11z"/>
<path d="M2870 1751 c-23 -34 -53 -100 -48 -109 2 -4 19 26 40 66 20 39 35 72
33 72 -2 0 -13 -13 -25 -29z"/>
<path d="M5912 1750 c0 -14 2 -19 5 -12 2 6 2 18 0 25 -3 6 -5 1 -5 -13z"/>
<path d="M9240 1681 c-132 -134 -315 -240 -555 -320 -174 -58 -372 -97 -765
-150 -36 -5 -51 -9 -35 -10 17 0 82 6 145 14 620 80 949 202 1208 449 37 35
90 98 80 95 -2 -1 -37 -36 -78 -78z"/>
<path d="M5896 1695 c-20 -80 -99 -186 -186 -248 -24 -17 -24 -17 8 0 53 29
130 117 163 188 17 36 29 70 27 77 -3 7 -8 -1 -12 -17z"/>
<path d="M2806 1589 c-3 -17 -5 -43 -5 -58 1 -14 5 -2 10 28 10 58 6 83 -5 30z"/>
<path d="M2794 1405 c0 -55 1 -76 3 -47 2 29 2 74 0 100 -2 26 -3 2 -3 -53z"/>
<path d="M5630 1405 c-25 -13 -41 -24 -37 -25 11 0 87 39 87 45 0 7 0 7 -50
-20z"/>
<path d="M5550 1370 c-8 -5 -10 -10 -5 -10 6 0 17 5 25 10 8 5 11 10 5 10 -5
0 -17 -5 -25 -10z"/>
<path d="M6436 1290 c19 -39 113 -147 182 -211 113 -104 292 -217 606 -383
390 -206 503 -278 631 -403 85 -82 124 -128 178 -208 51 -76 63 -80 20 -6 -91
156 -242 296 -473 441 -66 41 -493 270 -505 270 -5 0 -178 101 -233 136 -133
85 -291 226 -386 344 -15 19 -25 28 -20 20z"/>
<path d="M2782 1274 c-1 -12 -4 -37 -7 -55 -5 -31 -5 -32 5 -9 6 13 9 38 7 55
-2 18 -4 21 -5 9z"/>
<path d="M1684 1254 c-18 -14 -18 -15 4 -4 12 6 22 13 22 15 0 8 -5 6 -26 -11z"/>
<path d="M7108 1203 c6 -2 18 -2 25 0 6 3 1 5 -13 5 -14 0 -19 -2 -12 -5z"/>
<path d="M7198 1193 c6 -2 18 -2 25 0 6 3 1 5 -13 5 -14 0 -19 -2 -12 -5z"/>
<path d="M7645 1190 l-90 -6 80 -1 c44 0 112 3 150 7 l70 7 -60 0 c-33 -1
-100 -4 -150 -7z"/>
<path d="M7307 1183 c18 -2 50 -2 70 0 21 2 7 4 -32 4 -38 0 -55 -2 -38 -4z"/>
<path d="M2750 1142 c-32 -91 -132 -214 -233 -289 -27 -20 -97 -60 -155 -90
-114 -56 -125 -73 -18 -24 86 39 196 111 258 169 56 52 140 173 158 228 16 48
7 53 -10 6z"/>
<path d="M3928 1064 c12 -18 43 -54 68 -80 45 -48 45 -47 -7 16 -65 80 -89
105 -61 64z"/>
<path d="M5052 980 c0 -14 2 -19 5 -12 2 6 2 18 0 25 -3 6 -5 1 -5 -13z"/>
<path d="M4095 880 c10 -11 20 -20 23 -20 3 0 -3 9 -13 20 -10 11 -20 20 -23
20 -3 0 3 -9 13 -20z"/>
<path d="M4130 856 c0 -2 8 -10 18 -17 15 -13 16 -12 3 4 -13 16 -21 21 -21
13z"/>
<path d="M4190 807 c0 -3 12 -12 26 -22 15 -9 23 -12 20 -6 -7 11 -46 35 -46
28z"/>
<path d="M5210 696 c-23 -30 -78 -83 -123 -118 -205 -160 -233 -185 -274 -246
-24 -35 -43 -71 -43 -80 0 -10 11 5 25 32 31 65 88 121 220 221 124 93 193
158 224 210 29 50 20 43 -29 -19z"/>
<path d="M6293 700 c0 -25 2 -35 4 -22 2 12 2 32 0 45 -2 12 -4 2 -4 -23z"/>
<path d="M4320 725 c0 -7 141 -77 146 -73 2 2 -30 21 -71 41 -41 20 -75 35
-75 32z"/>
<path d="M6301 629 c-1 -27 39 -150 66 -204 40 -79 98 -156 153 -203 65 -56
64 -45 -3 21 -91 90 -156 199 -194 327 -12 41 -22 68 -22 59z"/>
<path d="M6855 404 c42 -23 85 -65 86 -83 0 -10 3 -11 5 -4 11 27 -44 83 -96
97 -22 6 -21 4 5 -10z"/>
<path d="M5259 393 c-13 -16 -12 -17 4 -4 9 7 17 15 17 17 0 8 -8 3 -21 -13z"/>
<path d="M6762 330 c0 -14 2 -19 5 -12 2 6 2 18 0 25 -3 6 -5 1 -5 -13z"/>
<path d="M6770 293 c1 -15 37 -51 68 -67 61 -31 108 -13 117 45 l6 34 -15 -32
c-29 -63 -83 -65 -142 -6 -19 18 -34 30 -34 26z"/>
<path d="M4762 210 c0 -14 2 -19 5 -12 2 6 2 18 0 25 -3 6 -5 1 -5 -13z"/>
</g>
</svg>
