<svg version="1.0" xmlns="http://www.w3.org/2000/svg"
 width="1600.000000pt" height="1209.000000pt" viewBox="0 0 1600.000000 1209.000000"
 preserveAspectRatio="xMidYMid meet">

<g transform="translate(0.000000,1209.000000) scale(0.100000,-0.100000)"
fill="#000000" stroke="none">
<path fill="white" d="M11401 12033 c-164 -325 -379 -1197 -622 -2528 -29 -159 -54 -292
-55 -294 -2 -2 -16 6 -33 18 -52 37 -134 70 -291 117 -264 78 -361 136 -537
318 -145 150 -193 214 -487 662 -173 264 -249 329 -336 286 -41 -20 -90 -88
-120 -170 -39 -100 -97 -350 -135 -577 -20 -121 -54 -311 -75 -422 -55 -285
-71 -409 -71 -553 1 -127 6 -162 34 -217 25 -47 58 -63 129 -63 61 0 111 9
461 84 254 54 357 68 522 69 174 1 275 -16 530 -88 232 -66 318 -71 350 -21
13 20 44 157 80 351 l7 40 13 -37 c18 -48 32 -153 45 -318 27 -348 76 -463
317 -740 144 -167 170 -201 189 -245 19 -45 13 -63 -38 -123 -78 -90 -83 -155
-16 -219 51 -48 90 -63 163 -63 76 0 127 18 172 62 27 26 33 29 39 15 8 -23
-13 -82 -43 -117 -90 -108 -396 -62 -628 93 -91 61 -232 209 -355 372 -101
134 -195 238 -258 286 -156 118 -319 128 -563 34 -247 -95 -440 -244 -578
-444 -67 -99 -168 -295 -202 -393 -30 -89 -36 -196 -14 -254 41 -108 171 -190
290 -182 81 5 154 41 356 173 265 175 434 251 614 276 91 13 165 4 230 -27 91
-43 162 -168 269 -475 66 -188 166 -469 237 -661 21 -60 39 -117 39 -128 0
-15 -12 -23 -57 -36 -478 -135 -613 -185 -685 -252 l-27 -25 -11 29 c-22 57
-70 256 -70 290 l0 34 42 -21 c88 -45 226 -35 313 23 105 70 112 183 18 288
-147 164 -334 112 -409 -113 l-17 -51 -20 40 c-27 51 -28 135 -2 189 11 24 86
107 191 210 198 195 228 240 228 340 1 95 -59 179 -159 221 -44 18 -126 18
-171 -1 -41 -17 -144 -117 -144 -139 0 -9 -6 -16 -14 -16 -32 0 -539 -211
-696 -290 -138 -70 -188 -140 -161 -229 14 -50 97 -166 170 -241 72 -74 128
-100 235 -109 44 -4 95 -15 111 -24 62 -32 128 -120 118 -157 -3 -11 -24 -27
-52 -37 -38 -15 -77 -18 -236 -18 -266 0 -304 17 -237 104 24 32 27 44 27 117
0 73 -3 87 -39 159 -33 68 -59 99 -176 217 -102 102 -151 144 -191 163 -30 14
-62 25 -71 25 -16 0 -15 3 2 43 38 83 20 156 -65 267 -25 32 -45 62 -45 67 0
5 14 19 30 31 34 26 81 112 104 193 9 29 29 118 45 196 16 79 40 166 54 195
57 126 205 227 542 373 158 68 317 149 383 194 104 70 163 156 148 216 -30
119 -301 206 -696 222 -327 13 -614 -51 -782 -175 -142 -105 -350 -409 -448
-656 -85 -214 -96 -565 -21 -692 18 -30 18 -31 -5 -57 -76 -88 -40 -205 77
-247 32 -12 41 -24 90 -124 102 -210 214 -377 298 -443 52 -42 117 -78 189
-103 57 -21 62 -25 62 -52 0 -69 71 -156 147 -178 83 -25 155 42 132 123 -11
41 -59 85 -100 94 -43 8 -35 23 12 23 111 0 172 -125 125 -257 -23 -65 -80
-148 -117 -171 -19 -11 -86 -35 -149 -52 -295 -83 -356 -154 -301 -355 12 -43
77 -225 145 -404 68 -179 164 -434 214 -566 202 -540 251 -648 310 -693 30
-23 48 -28 125 -32 l90 -5 -134 -44 c-74 -24 -219 -75 -324 -113 -284 -105
-340 -118 -413 -99 -82 23 -124 99 -240 441 -89 262 -153 432 -302 815 -152
389 -205 560 -183 591 4 6 60 23 123 39 295 72 419 145 354 209 -22 23 -108
20 -190 -5 -92 -28 -240 -105 -289 -150 -37 -34 -53 -40 -200 -74 -312 -72
-475 -133 -562 -209 -23 -20 -54 -62 -70 -94 -25 -51 -28 -67 -27 -157 0 -114
26 -228 104 -465 178 -541 388 -1076 480 -1226 l20 -31 -26 -34 c-13 -19 -36
-69 -49 -113 -31 -100 -55 -134 -129 -184 -153 -102 -758 -360 -908 -387 -57
-11 -100 17 -190 121 -312 358 -459 695 -657 1505 -121 493 -130 560 -82 627
47 66 289 159 646 248 244 61 428 94 561 101 105 6 111 5 131 -16 27 -30 57
-24 61 11 6 48 -32 62 -162 60 -158 -1 -392 -44 -711 -129 -359 -96 -541 -177
-585 -262 -43 -84 -37 -134 61 -550 190 -811 340 -1185 615 -1538 81 -104 186
-211 220 -223 49 -19 120 -11 226 26 229 79 632 255 760 331 113 68 161 122
188 214 20 68 55 149 64 149 2 0 21 -7 42 -16 74 -31 229 8 493 122 194 84
276 147 252 192 -14 26 -51 32 -130 21 -179 -26 -515 -144 -620 -218 l-29 -21
-15 23 c-105 161 -482 1175 -553 1489 -26 117 -31 218 -12 282 26 86 136 163
318 221 70 22 398 105 415 105 3 0 5 -19 5 -42 0 -57 68 -255 238 -694 77
-197 172 -453 211 -569 159 -465 184 -517 277 -571 42 -25 51 -26 132 -21 89
5 144 21 392 115 58 22 247 87 421 145 423 141 476 169 498 267 6 25 17 77 26
115 31 142 78 183 262 231 123 32 148 54 140 123 -6 49 -39 157 -80 262 -66
166 -296 793 -350 953 -33 98 -69 189 -81 203 -37 43 -88 41 -228 -7 -149 -51
-183 -50 -322 9 -108 46 -140 50 -156 20 -19 -35 -18 -38 318 -1004 315 -905
328 -949 285 -987 -43 -39 -347 -88 -450 -72 -97 14 -107 34 -397 805 -63 167
-152 405 -199 529 -112 296 -127 345 -129 408 -3 96 48 132 276 197 155 43
204 74 255 160 90 150 93 285 9 372 -63 65 -129 75 -240 36 -45 -16 -51 -16
-105 1 -151 47 -239 119 -343 277 -56 85 -170 297 -170 316 0 5 42 7 92 5 74
-2 100 1 128 15 47 24 61 64 34 101 -61 83 -211 81 -301 -4 -40 -38 -56 -38
-97 3 -32 32 -34 80 -6 116 l21 26 42 -19 c51 -24 99 -25 159 -5 94 33 139
114 83 151 -34 22 -134 13 -215 -19 -68 -28 -69 -27 -96 48 -24 69 -24 316 0
429 35 158 110 319 244 521 173 261 303 353 582 412 117 24 437 29 598 9 276
-35 442 -102 442 -177 0 -42 -69 -112 -168 -172 -44 -27 -188 -97 -320 -157
-268 -120 -349 -163 -425 -223 -134 -106 -175 -182 -217 -405 -22 -119 -52
-227 -77 -277 -8 -16 -37 -51 -64 -76 -58 -55 -59 -52 24 -166 82 -115 87
-164 27 -255 -42 -63 -34 -78 44 -78 82 0 104 -15 261 -173 143 -145 189 -217
201 -314 6 -48 4 -57 -27 -105 -41 -64 -46 -120 -11 -148 37 -30 127 -43 297
-44 196 -1 265 12 312 59 42 42 44 84 5 146 -35 54 -104 115 -146 128 -17 6
-71 14 -120 20 -106 11 -141 31 -229 136 -147 174 -152 241 -24 314 101 57
686 306 688 293 1 -4 1 -30 -1 -58 -4 -104 67 -185 168 -192 48 -3 63 0 92 20
75 51 106 166 64 238 -32 55 -65 73 -146 79 l-72 6 31 31 c73 72 149 80 236
24 54 -34 87 -91 87 -148 0 -70 -41 -127 -218 -302 -190 -187 -222 -235 -222
-331 0 -68 20 -127 60 -182 18 -25 30 -53 30 -73 0 -59 30 -205 64 -309 l33
-103 -23 -68 c-66 -194 -1 -495 229 -1064 66 -163 223 -501 269 -578 80 -134
150 -176 261 -153 139 28 463 150 622 235 125 66 149 96 142 176 -8 95 -112
379 -168 461 l-18 26 69 47 c38 26 94 75 125 107 95 103 106 196 44 382 -66
194 -312 730 -376 817 -61 82 -100 90 -156 32 -76 -78 -64 -136 102 -530 90
-211 133 -345 135 -419 1 -55 -2 -65 -28 -92 -38 -40 -105 -67 -266 -108 -234
-59 -413 -56 -518 11 -54 34 -115 107 -161 190 -36 66 -125 272 -191 443 l-28
72 39 35 c70 64 177 105 557 214 95 28 182 58 194 69 29 26 21 64 -57 278 -36
99 -107 295 -156 435 -125 353 -164 449 -208 517 -50 75 -94 116 -156 145 -44
20 -65 23 -175 22 -106 0 -139 -5 -215 -28 -130 -39 -306 -129 -500 -257 -206
-135 -261 -162 -335 -162 -114 -1 -222 90 -236 196 -18 138 172 520 345 696
121 123 294 228 484 294 82 28 104 31 207 32 102 0 120 -3 160 -24 113 -59
139 -85 415 -426 178 -219 290 -312 460 -382 121 -49 211 -65 330 -61 88 3
106 7 148 31 63 37 99 93 105 163 5 58 -13 94 -47 94 -9 1 -25 20 -36 43 -39
83 -193 124 -250 67 -34 -35 -40 -78 -17 -116 22 -34 76 -64 117 -64 17 0 24
-4 19 -11 -4 -7 -27 -10 -60 -7 -87 7 -157 71 -139 127 3 12 26 45 51 73 51
60 59 82 51 140 -7 50 -47 109 -173 253 -267 306 -316 415 -339 755 -13 203
-35 320 -76 407 l-20 41 61 329 c250 1348 431 2101 598 2479 28 63 37 93 30
102 -18 21 -37 13 -57 -25z m-2283 -1477 c59 -31 108 -96 300 -393 164 -255
280 -411 390 -526 182 -189 321 -272 582 -347 165 -48 253 -86 293 -128 l28
-29 -35 -189 c-49 -261 -47 -254 -66 -264 -26 -14 -99 -2 -269 47 -282 79
-333 87 -546 88 -218 0 -275 -8 -660 -90 -137 -30 -278 -57 -312 -61 -57 -6
-63 -4 -86 18 -67 67 -61 286 19 707 20 102 53 287 74 411 76 445 139 669 212
748 25 26 39 27 76 8z m2402 -3056 c24 -13 55 -58 46 -67 -3 -3 -30 -8 -59
-10 -86 -7 -151 40 -116 84 15 17 91 13 129 -7z m-3141 -416 c-22 -27 -70 -46
-116 -46 -40 0 -75 15 -62 25 15 14 102 36 143 36 43 1 47 -1 35 -15z m1881
-202 c50 -37 52 -115 4 -171 -84 -101 -231 12 -194 148 8 32 16 41 38 44 49 9
126 -2 152 -21z m-1797 -14 c44 -23 1 -58 -72 -58 -58 0 -131 12 -131 21 0 11
56 40 95 50 32 8 79 2 108 -13z m1970 -582 c97 -40 157 -163 113 -231 -53 -81
-233 -103 -328 -40 -44 29 -46 43 -18 121 46 133 136 191 233 150z m-1506
-221 c62 -19 103 -50 103 -79 0 -30 -18 -46 -53 -46 -39 0 -117 76 -117 114 0
30 1 31 67 11z m2431 -157 c75 -115 266 -531 349 -758 43 -118 53 -211 29
-274 -19 -51 -104 -136 -189 -190 -55 -35 -58 -36 -82 -20 -50 33 -120 16
-345 -80 -251 -108 -275 -120 -294 -147 -19 -28 -6 -54 31 -62 75 -15 314 55
510 148 89 42 119 52 126 43 26 -38 93 -193 128 -298 48 -147 50 -191 12 -227
-74 -70 -580 -268 -713 -280 -95 -8 -127 25 -240 242 -62 119 -91 183 -177
385 -150 355 -248 664 -274 868 -9 74 -9 109 1 164 6 38 14 67 17 64 3 -2 38
-85 77 -183 95 -234 155 -347 222 -421 135 -150 334 -176 669 -87 152 40 208
62 253 100 54 45 65 78 59 165 -6 89 -49 218 -166 497 -119 284 -132 344 -89
390 12 13 27 23 34 23 6 0 30 -28 52 -62z m-2056 -264 c66 -29 99 -38 163 -41
72 -4 90 -1 183 31 56 20 118 36 137 36 43 0 46 -4 120 -225 53 -156 271 -746
311 -840 24 -59 101 -285 109 -322 8 -42 -13 -56 -130 -84 -190 -44 -251 -110
-284 -304 -15 -87 -29 -123 -50 -135 -15 -7 -19 1 -29 61 -14 80 -120 398
-402 1204 -181 517 -227 655 -216 655 2 0 42 -16 88 -36z m-1047 -254 c-10
-16 -75 -46 -150 -68 -95 -29 -185 -51 -185 -46 0 9 127 67 208 94 89 30 138
38 127 20z m3175 -769 c0 -19 -269 -128 -414 -167 -85 -22 -127 -25 -75 -5 13
5 105 44 204 86 99 43 191 81 205 86 35 10 80 11 80 0z m-3105 -1381 c-19 -30
-321 -161 -472 -205 -90 -26 -188 -34 -181 -14 10 29 210 118 380 169 172 51
286 72 273 50z"/>

<path d="M4330 450 c-38 -38 -14 -130 34 -130 42 0 62 102 28 133 -24 22 -38
21 -62 -3z"/>
<path d="M14867 446 c-4 -10 -5 -21 -2 -24 9 -9 17 6 13 25 -3 17 -4 17 -11
-1z"/>
<path d="M14995 431 c-7 -24 4 -51 21 -51 9 0 14 12 14 35 0 38 -24 50 -35 16z"/>
<path d="M13080 435 c0 -46 3 -55 18 -55 27 0 42 20 42 55 0 35 -15 55 -42 55
-15 0 -18 -9 -18 -55z"/>
<path d="M13444 427 c-8 -21 1 -47 16 -47 19 0 23 31 7 48 -15 14 -17 14 -23
-1z"/>
<path d="M13582 440 c-10 -17 -10 -20 3 -20 8 0 15 9 15 20 0 11 -1 20 -3 20
-1 0 -8 -9 -15 -20z"/>
<path d="M13997 446 c-4 -10 -5 -21 -2 -24 9 -9 17 6 13 25 -3 17 -4 17 -11
-1z"/>
<path d="M14126 474 c-16 -41 0 -104 23 -90 17 11 14 106 -3 106 -8 0 -17 -7
-20 -16z"/>
<path d="M14265 430 c-10 -16 4 -50 21 -50 11 0 14 8 12 27 -3 28 -22 41 -33
23z"/>
<path d="M14596 481 c-25 -27 -18 -79 14 -102 34 -25 65 -15 85 28 16 34 16
37 -2 62 -25 33 -72 40 -97 12z m72 -3 c7 -7 12 -16 12 -20 0 -13 -28 -9 -32
4 -7 19 -28 -1 -28 -27 0 -28 17 -42 33 -26 15 15 27 14 27 -4 0 -20 -46 -30
-65 -15 -18 15 -20 71 -3 88 7 7 19 12 28 12 9 0 21 -5 28 -12z"/>
</g>
</svg>
