<svg version="1.0" xmlns="http://www.w3.org/2000/svg"
 width="800.000000pt" height="560.000000pt" viewBox="0 0 800.000000 560.000000"
 preserveAspectRatio="xMidYMid meet">

<g transform="translate(0.000000,560.000000) scale(0.100000,-0.100000)"
fill="#ffffff" stroke="none">
<path d="M4982 4246 c-143 -36 -188 -168 -76 -221 32 -15 54 -17 148 -11 126
7 145 1 131 -40 -18 -49 -57 -69 -146 -73 -115 -5 -167 5 -201 39 -22 22 -28
38 -28 69 0 45 -26 81 -58 81 -53 0 -278 -84 -292 -109 -6 -13 -4 -25 7 -40 8
-12 35 -59 60 -104 49 -90 81 -128 131 -159 49 -30 98 -21 310 56 195 70 212
75 192 51 -36 -44 -333 -151 -448 -162 -57 -5 -65 -4 -89 18 -34 31 -88 105
-148 203 -36 58 -57 82 -82 93 -30 12 -32 15 -18 29 8 8 15 22 15 30 0 28 -92
114 -154 144 -82 40 -157 47 -287 26 -133 -22 -173 -41 -177 -81 -2 -25 9 -44
62 -106 59 -69 131 -129 156 -129 17 0 7 -53 -16 -79 -2 -3 -57 50 -122 116
-134 138 -174 160 -221 126 -59 -44 -95 -132 -72 -176 6 -12 26 -43 45 -69 19
-26 46 -80 61 -120 52 -143 94 -218 130 -235 31 -15 35 -15 67 4 41 24 79 98
109 211 l22 82 44 0 c44 0 85 16 135 53 55 41 100 2 162 -142 47 -111 89 -160
173 -203 127 -67 201 -71 417 -28 163 33 259 67 321 112 l40 29 3 -293 c3
-301 -4 -505 -18 -528 -6 -9 -18 -10 -46 -3 -34 8 -60 33 -224 228 -200 236
-240 272 -368 326 -62 26 -94 33 -167 37 -158 7 -256 -40 -429 -207 -104 -101
-139 -127 -157 -116 -6 5 -8 57 -3 154 6 127 5 151 -10 180 -18 33 -76 67
-101 57 -8 -3 -24 12 -38 33 -29 43 -71 66 -139 76 -47 7 -47 7 -28 28 27 28
43 82 37 120 -24 137 -30 151 -72 171 -43 21 -191 21 -270 1 -65 -17 -98 -37
-129 -78 l-20 -27 21 -28 21 -28 -47 -1 c-49 -1 -98 -20 -120 -47 -18 -22 -6
-63 22 -72 20 -7 18 -9 -13 -14 l-35 -5 0 -62 c0 -72 17 -92 74 -93 20 0 31
-4 25 -8 -17 -16 -435 -134 -492 -139 l-57 -5 -13 35 c-8 21 -35 54 -70 83
-59 49 -102 94 -102 107 0 4 12 7 26 7 27 0 53 -23 128 -114 42 -52 74 -58 91
-18 7 17 15 21 30 17 88 -27 234 -8 297 37 30 21 30 22 24 87 -12 118 -23 133
-76 106 -41 -21 -42 -19 -9 14 34 35 37 61 8 87 -18 16 -36 19 -108 18 -99 -1
-160 -15 -198 -48 -32 -28 -35 -76 -7 -109 16 -17 19 -31 14 -62 -7 -42 -10
-38 -29 32 -7 25 -21 47 -33 54 -58 31 -232 -29 -306 -104 -23 -23 -51 -64
-64 -92 -21 -47 -23 -62 -22 -230 1 -171 3 -190 43 -375 92 -430 94 -442 95
-625 1 -157 -1 -175 -23 -230 -31 -79 -100 -147 -164 -163 -180 -46 -469 44
-830 259 -167 100 -317 176 -402 204 -107 36 -222 33 -302 -8 -70 -36 -175
-136 -246 -235 -71 -98 -207 -322 -207 -339 0 -37 33 0 100 114 235 394 387
506 610 449 81 -21 246 -102 420 -206 338 -202 583 -289 785 -278 139 7 214
62 266 195 19 49 23 82 26 208 5 164 -8 258 -81 590 -47 215 -66 352 -66 472
0 178 43 261 167 325 76 39 156 57 182 41 8 -5 21 -34 29 -64 7 -30 22 -63 33
-75 20 -21 26 -64 9 -64 -5 0 -32 31 -59 68 -28 38 -62 74 -76 80 -33 15 -78
15 -93 0 -26 -26 -11 -54 75 -135 48 -45 84 -85 80 -89 -4 -4 -26 11 -50 33
-48 46 -83 67 -101 60 -10 -4 -14 -132 -19 -599 -6 -671 -11 -620 77 -714 38
-40 59 -54 79 -54 51 0 52 12 49 520 -2 256 0 515 3 577 l7 112 46 6 c68 10
99 18 381 102 140 41 272 83 295 93 23 11 92 35 154 54 172 55 267 49 321 -21
l22 -27 -49 -50 c-27 -28 -72 -81 -100 -117 -73 -94 -171 -182 -237 -213 -112
-54 -192 -67 -430 -75 -137 -4 -228 -12 -241 -19 -44 -23 -72 -71 -88 -144
-34 -155 -45 -426 -26 -652 12 -142 23 -170 67 -174 31 -3 459 104 743 184
154 44 263 94 312 141 88 86 102 197 92 726 l-6 367 23 0 c62 -1 72 -33 64
-209 -7 -131 -5 -149 10 -164 38 -39 71 -20 226 129 130 125 218 174 327 182
167 12 344 -77 465 -233 30 -38 29 -38 -24 11 -82 77 -111 89 -199 88 -123 -2
-342 -88 -476 -187 -136 -100 -254 -285 -335 -527 -42 -125 -46 -250 -12 -320
29 -57 136 -200 275 -367 229 -275 232 -276 235 -98 4 210 38 384 97 489 36
65 166 198 204 210 24 8 52 -7 52 -28 0 -7 -22 -29 -50 -50 -151 -115 -260
-349 -247 -531 13 -181 111 -315 266 -362 84 -26 237 -24 326 4 305 96 600
503 553 763 -19 105 -105 258 -260 463 l-59 77 35 0 c61 0 61 -2 64 475 3 400
5 431 22 450 10 11 47 66 83 122 146 226 215 244 321 84 57 -85 89 -156 161
-357 94 -262 158 -359 268 -409 155 -71 304 -53 840 100 161 45 334 90 386 99
186 32 310 17 451 -54 86 -43 100 -47 100 -27 0 18 -150 92 -225 112 -89 23
-238 19 -375 -9 -63 -13 -227 -56 -365 -96 -386 -111 -447 -123 -605 -124
-128 -1 -138 0 -191 27 -111 54 -162 133 -249 382 -97 280 -202 457 -285 485
-80 27 -143 -20 -256 -191 l-73 -111 -12 83 c-11 73 -16 87 -42 109 -29 25
-29 26 -15 65 10 27 13 73 12 140 -2 55 1 110 5 123 10 29 -13 66 -56 88 -42
22 -169 27 -236 10z m183 -27 c25 -6 50 -19 57 -28 12 -15 11 -15 -6 -1 -14
11 -44 15 -110 15 -102 0 -147 -14 -166 -51 -25 -46 25 -94 96 -94 13 0 24 -4
24 -10 0 -13 -101 -13 -134 0 -14 5 -32 21 -42 35 -55 84 129 172 281 134z
m15 -52 c52 -18 50 -41 -4 -62 -58 -22 -178 -18 -203 8 -16 16 -16 18 -1 33
31 32 144 43 208 21z m-963 -53 c58 -28 150 -111 137 -124 -5 -4 -58 -18 -119
-30 -99 -20 -149 -38 -196 -72 -27 -19 -69 1 -136 65 -69 66 -108 121 -98 137
8 13 100 39 177 50 89 12 174 3 235 -26z m1020 -133 c-8 -116 -18 -136 -76
-149 -26 -6 -129 -40 -229 -76 -100 -36 -194 -66 -208 -66 -27 0 -76 30 -107
65 -9 11 -33 49 -53 85 -20 36 -45 78 -56 93 -11 16 -18 30 -16 32 36 32 255
102 270 87 6 -6 15 -35 19 -64 14 -90 72 -120 231 -120 64 0 98 5 132 20 100
45 101 161 1 163 -25 0 -20 3 25 18 70 22 75 15 67 -88z m-1404 -120 c146
-144 141 -127 91 -277 -45 -135 -96 -177 -143 -118 -11 14 -41 80 -68 147 -26
67 -67 151 -91 186 -48 70 -49 88 -10 145 30 44 46 55 71 48 12 -3 80 -62 150
-131z m328 43 c-25 -8 -47 -12 -49 -9 -5 5 56 23 78 23 8 0 -5 -6 -29 -14z
m213 6 c17 -6 51 -49 99 -122 132 -204 154 -219 282 -193 178 37 379 119 440
181 29 28 39 33 54 25 22 -12 28 -31 36 -136 l7 -81 -36 -32 c-67 -58 -145
-89 -321 -127 -207 -44 -278 -42 -397 12 -82 36 -135 98 -182 211 -27 66 -48
101 -77 126 -50 46 -78 46 -149 1 -61 -39 -120 -48 -120 -17 1 9 9 32 19 51
16 30 26 36 77 48 33 7 100 24 149 37 50 14 91 25 92 26 1 0 13 -4 27 -10z
m-849 -151 c9 -8 17 -28 18 -44 2 -27 -1 -30 -53 -42 -84 -20 -259 -28 -303
-14 -45 15 -49 41 -9 69 54 38 116 51 239 49 69 -2 96 -6 108 -18z m42 -161
c-11 -79 -81 -135 -183 -145 -69 -7 -84 7 -84 78 l0 47 63 6 c109 12 133 17
163 36 42 27 47 25 41 -22z m-774 21 c75 -20 17 -64 -111 -84 -50 -7 -96 -16
-102 -20 -16 -10 -40 14 -40 40 0 49 161 90 253 64z m465 1 l53 0 -27 -23
c-26 -23 -74 -26 -74 -6 0 5 -12 16 -27 24 -28 16 -28 16 -3 11 14 -3 49 -6
78 -6z m-87 -39 c35 -28 13 -44 -65 -49 -93 -6 -135 22 -78 52 40 22 115 20
143 -3z m62 -154 c-7 -27 -16 -34 -53 -44 -25 -6 -75 -12 -112 -12 -75 -1 -88
9 -88 69 0 31 1 31 33 23 17 -4 58 -8 91 -8 55 0 60 2 90 37 l31 37 9 -35 c5
-21 5 -49 -1 -67z m-351 8 l3 -60 -48 -24 c-40 -19 -64 -24 -130 -24 -45 0
-95 5 -110 12 -27 10 -28 14 -25 68 l3 58 32 -3 c41 -4 173 15 221 33 20 7 40
10 44 6 3 -3 8 -33 10 -66z m251 53 c-16 -8 -36 -8 -65 -1 l-43 11 65 0 c53 1
61 -1 43 -10z m177 -71 c0 -3 -9 -7 -20 -10 -17 -4 -20 0 -20 30 l0 36 20 -26
c11 -14 20 -27 20 -30z m420 -324 c1 -120 3 -258 6 -308 3 -49 1 -157 -4 -240
-17 -259 -51 -308 -267 -382 -122 -42 -808 -223 -843 -223 -34 0 -46 108 -44
390 1 252 14 389 45 462 27 64 53 71 297 79 385 12 489 60 697 321 51 65 98
118 103 118 6 0 10 -82 10 -217z m-1333 122 l64 -54 0 -518 c2 -758 8 -705
-66 -633 -91 88 -87 61 -75 548 6 235 8 491 4 570 -3 78 -3 142 1 142 4 0 36
-25 72 -55z m2348 -128 c60 -30 175 -150 175 -182 0 -8 -28 -17 -77 -25 -163
-26 -358 -97 -474 -173 -152 -98 -279 -269 -317 -427 -37 -154 -11 -346 51
-366 29 -9 50 17 150 190 109 191 181 290 268 371 128 119 326 194 560 211
l84 6 100 -135 c195 -264 251 -381 243 -510 -15 -245 -271 -560 -528 -648 -50
-17 -88 -22 -165 -22 -193 0 -304 70 -366 232 -17 43 -22 77 -22 151 1 105 20
178 76 285 30 57 173 215 194 215 5 0 15 -19 22 -42 12 -37 11 -42 -6 -51 -10
-6 -44 -36 -76 -66 -104 -98 -153 -239 -145 -409 3 -75 8 -96 34 -143 33 -59
99 -111 162 -129 54 -15 179 -12 245 5 204 53 372 219 457 454 59 161 60 298
2 404 -32 59 -69 92 -142 126 -46 21 -69 25 -145 25 -107 -1 -187 -20 -300
-73 l-83 -39 -21 24 c-12 13 -31 24 -44 24 -60 0 -196 -128 -255 -238 -18 -34
-44 -105 -57 -158 -25 -95 -50 -338 -41 -388 3 -14 1 -26 -4 -26 -19 0 -324
371 -402 489 -82 125 -85 178 -22 373 43 134 127 302 189 380 25 31 76 80 113
108 106 79 326 179 427 193 40 6 115 -3 140 -16z m261 -208 c37 -45 73 -87 79
-93 6 -6 19 -23 28 -37 l18 -26 -81 -7 c-129 -12 -274 -51 -387 -106 -165 -81
-283 -211 -432 -480 -107 -192 -117 -203 -141 -152 -19 38 -25 213 -10 281 42
196 212 389 433 490 87 40 246 87 337 100 39 5 78 15 86 21 17 15 18 43 4 71
-19 34 -4 21 66 -62z m240 -503 c178 -83 206 -321 69 -586 -95 -182 -222 -290
-396 -335 -81 -21 -208 -17 -259 9 -92 48 -132 115 -138 236 -9 175 62 337
184 421 31 21 49 28 57 21 7 -5 25 -14 41 -19 l29 -9 -36 -22 c-47 -27 -94
-101 -103 -159 -25 -167 160 -282 322 -201 95 47 164 193 150 321 -8 76 -48
151 -91 171 -49 24 -151 20 -238 -7 l-74 -24 -15 47 -15 48 36 20 c109 61 214
90 331 91 80 1 103 -3 146 -23z m-178 -186 c74 -45 89 -207 30 -324 -43 -87
-104 -126 -195 -126 -87 0 -150 44 -175 123 -24 78 35 184 123 221 32 13 38
13 65 -3 15 -9 47 -44 69 -77 50 -72 78 -80 83 -20 7 80 -39 131 -131 146
-159 26 -170 36 -65 64 79 22 156 20 196 -4z m-54 -131 c22 -26 36 -69 22 -69
-2 0 -15 17 -27 38 -13 20 -27 43 -32 50 -17 25 12 11 37 -19z"/>
</g>
</svg>
